<?xml version="1.0" encoding="UTF-8" standalone="no"?><svg xmlns="http://www.w3.org/2000/svg" xmlns:xlink="http://www.w3.org/1999/xlink" clip-rule="evenodd" fill="#000000" fill-rule="evenodd" height="141.6" preserveAspectRatio="xMidYMid meet" stroke-linejoin="round" stroke-miterlimit="2" version="1" viewBox="0.0 0.0 200.0 141.6" width="200" zoomAndPan="magnify"><g transform="translate(-31.138 -157.163)"><path d="M31.138 157.163H231.138V298.759H31.138z" fill="none"/><clipPath id="a"><path d="M31.138 157.163H231.138V298.759H31.138z"/></clipPath><g clip-path="url(#a)"><g id="change1_1"><path d="M45.474,167.669C38.909,171.845 35.256,177.629 33.358,185.215C32.082,190.313 31.602,195.553 31.301,200.786C30.77,210.046 31.616,219.258 32.678,228.445C34.111,240.843 35.548,253.48 47.623,260.22C59.724,266.975 75.819,267.151 89.303,266.787C104.986,266.364 120.235,264.707 135.774,262.743C148.04,261.192 160.375,259.127 172.286,255.482C190.501,249.909 189.692,182.234 175.993,167.212C167.881,158.316 153.607,158.325 141.898,157.476C128.462,156.503 115.055,158 101.685,159.229C88.598,160.431 58.28,164.439 45.474,167.669Z" fill="#f9f3ff" transform="translate(-8.904 -45.472) scale(1.29037)"/></g></g></g></svg>