<?xml version="1.0" encoding="UTF-8" standalone="no"?><svg xmlns="http://www.w3.org/2000/svg" xmlns:xlink="http://www.w3.org/1999/xlink" data-name="Magical Botanicals" fill="#8544ff" height="470.3" preserveAspectRatio="xMidYMid meet" version="1" viewBox="22.1 25.9 423.7 470.3" width="423.7" zoomAndPan="magnify"><g data-name="48" id="change1_1"><path d="M183.61,197.82c1.26,2.62,3.74,3.78,6.1,4.94q13.72,6.7,27.54,13.21a17.37,17.37,0,0,1,6.45,4.64c1,1.28,1.7,2.68,1.09,4.39a5.21,5.21,0,0,1-5,3.34,17.1,17.1,0,0,1-4.73-.64c-5.49-2.13-11-4.33-16.31-6.78-9.74-4.45-19.39-9.09-29.1-13.61a2,2,0,0,0-1.48.1c-1.22.53-1.21,1.36-.51,2.61,4.74,8.45,10.9,15.87,16.95,23.37,5.05,6.25,10.27,12.37,15.36,18.6a41.91,41.91,0,0,1,2.66,4c1,1.61.72,4.25-.36,6-1.4,2.31-5.88,2.14-7.3,1a50.54,50.54,0,0,1-4.79-4.22c-10.08-10.43-18.85-21.95-27.73-33.38a29.68,29.68,0,0,0-3-3.72,5.56,5.56,0,0,0-2.74-.93c-.21,0-.75.82-.81,1.3a73.26,73.26,0,0,0-.67,7.95c0,11.8.12,23.59.05,35.39a38.52,38.52,0,0,1-1.08,7.9c-.61,2.77-5.27,4.53-8,3.26-1.54-.71-2.9-1.88-3-3.44-.65-10.14-3.39-20-3-30.3a110.31,110.31,0,0,0-.61-12.83c-.06-.74-1-1.45-1.62-2.06a2.29,2.29,0,0,0-1.24.82c-6.28,10.64-11,22.06-16.34,33.14a55.87,55.87,0,0,1-3.15,5.53c-1,1.67-3.86,2.37-5.71,1.67a5.21,5.21,0,0,1-3.57-4.84,14.64,14.64,0,0,1,1-6.24c5-11.28,10.13-22.47,15.21-33.7q2-4.38,3.84-8.83a1.73,1.73,0,0,0-.16-1.36,2.19,2.19,0,0,0-2.79-1,287.9,287.9,0,0,0-39,19c-3.69,2.16-7.26,4.55-11.56,5.44a5.31,5.31,0,0,1-4.35-1.47c-1-1.33-1.64-2.84-1-4.44a13.35,13.35,0,0,1,2.29-4.13c3.6-4,8.25-6.79,12.8-9.62,7.73-4.81,15.51-9.55,23.2-14.43.76-.49,1-1.75,1.52-2.64a4.75,4.75,0,0,0-1.44-.69c-2.12-.22-4.24-.46-6.37-.47-5.36,0-10.72.15-16.08.1-4.82,0-9.65-.19-14.46-.46a5.86,5.86,0,0,1-5-8.18,6.36,6.36,0,0,1,3.14-3.35,19.23,19.23,0,0,1,6.31-.86c7.51-.18,15-.3,22.52-.31A77.48,77.48,0,0,0,116.62,184c.8-.2,1.43-1.24,2-2,.1-.15-.46-1-.88-1.25Q102,172.57,86.33,164.5c-2.86-1.47-5.79-2.79-8.59-4.36a8.74,8.74,0,0,1-2.11-2.35c-1.48-1.84.1-6.28,2.39-6.48,2.1-.19,4.36-.51,6.32.05a90.21,90.21,0,0,1,12,4.44c6.84,3.08,13.55,6.45,20.32,9.68,2.54,1.21,4.12,1.26,4.39.35.52-1.73-.49-2.94-1.25-4.17-5.07-8.21-10.28-16.33-15.3-24.57-1.94-3.18-3.55-6.58-5.21-9.92-.74-1.49.44-4.27,2.17-5.63a4.76,4.76,0,0,1,5.92.24,41.41,41.41,0,0,1,5.34,5.92c5.93,8.93,11.64,18,17.48,27,1.74,2.67,3.15,5.65,6,7.38a2.32,2.32,0,0,0,1.57.25,1.44,1.44,0,0,0,.9-.95c.42-6.39.91-12.79,1.12-19.19.25-7.5.16-15,.41-22.51a25.44,25.44,0,0,1,1.3-6.22c.68-2.31,4.14-4.12,6.48-3.59a5.84,5.84,0,0,1,4.07,4.49c.22,2.66.44,5.32.48,8,.15,10.72.2,21.44.38,32.16a32.2,32.2,0,0,0,.92,5.11c1.57-.93,3.43-1.38,4.07-2.51,5-8.86,9.83-17.82,14.61-26.81,2.26-4.25,4.22-8.67,6.53-12.9a14.58,14.58,0,0,1,3.24-3.43,4.75,4.75,0,0,1,5.89.41,7.86,7.86,0,0,1,1.91,4.19c.12,1.5-.58,3.11-1.1,4.61-4.27,12.19-10.15,23.61-16.47,34.83a38.5,38.5,0,0,0-3,7.33c-.13.41,1.3,1.87,2,1.89a10.16,10.16,0,0,0,4.62-.91c7.7-3.76,15.38-7.58,23-11.59A73.81,73.81,0,0,1,215.44,148a12.18,12.18,0,0,1,7.87.57c2.17.91,3.37,5.12,1.72,6.84a19.36,19.36,0,0,1-4.84,4.09c-11.49,5.77-23.09,11.31-34.61,17a34.62,34.62,0,0,0-5.21,3.61,2.05,2.05,0,0,0-.43,1.51,1.27,1.27,0,0,0,.71,1,40.9,40.9,0,0,0,6.3.84c11.79.11,23.59.06,35.38.2a21.47,21.47,0,0,1,6.27,1.06,5.56,5.56,0,0,1,3.69,4.8c.37,2.44-1.83,5.69-4.16,6.12a36.83,36.83,0,0,1-6.32.88c-10.18.06-20.37-.06-30.56,0C188.67,196.51,186,196.16,183.61,197.82Z" fill="inherit"/><path d="M376.07,333.15c.83,1.27,1.38,3.11,2.56,3.71,6.67,3.42,13.55,6.43,20.24,9.81a40.08,40.08,0,0,1,6.48,4.59c1.4,1.11,1.6,4.87.22,5.85s-3,1.9-4.28,1.62a67.7,67.7,0,0,1-10.69-3.39c-7.46-3-14.85-6.13-22.27-9.22a1.8,1.8,0,0,0-2.58,1,1.87,1.87,0,0,0,0,1.52c3.9,5.75,7.78,11.51,11.81,17.16,2.19,3.07,4.38,6.1,5.64,9.69.5,1.44-.66,4.43-2.29,5.65a5.12,5.12,0,0,1-4.56.43,16.17,16.17,0,0,1-6-5.23c-4.45-6-8.73-12.21-13.26-18.18-.86-1.14-2.55-1.65-3.85-2.45-.53,1.48-1.45,2.95-1.51,4.45-.22,5.36-.13,10.73-.18,16.09,0,3.21,0,6.43-.19,9.64a14.38,14.38,0,0,1-.81,3.09c-.59,2.07-4.14,4.06-6.53,3.66a5.68,5.68,0,0,1-4.18-4.35c-.26-3.2-.51-6.4-.64-9.61-.21-4.81-.28-9.63-.49-14.45-.07-1.46-.89-1.95-2-1.46a3.25,3.25,0,0,0-1.36.74,24.6,24.6,0,0,0-2.71,3.91c-2.45,4.77-4.63,9.67-7.2,14.37a24.1,24.1,0,0,1-4.18,4.77,4,4,0,0,1-4.45.76,5.54,5.54,0,0,1-3-3.55,12.16,12.16,0,0,1,.91-7.84c2.9-6.34,6-12.58,8.91-18.91,1.57-3.39,3-6.86,4.42-10.31.43-1,0-1.39-1.16-1.12-1,.23-2.15.14-3,.64-7.31,4.49-14.52,9.12-21.83,13.6-2.72,1.67-5.35,3.67-8.72,3.89-1.6.11-3.16,0-4.38-1.34s-1.68-4.53-.51-5.89a29,29,0,0,1,4.42-4.57c6-4.5,12.11-8.81,18.15-13.23.36-.27.47-.92.64-1.41.37-1.09-.18-1.87-1.61-1.93-3.21-.14-6.42-.15-9.63-.18-4.29,0-8.58,0-12.87-.15a29.65,29.65,0,0,1-4.71-.84c-1.72-.34-3.61-2.65-3.86-4.66-.2-1.66,1.64-4.07,3.51-4.93a19.11,19.11,0,0,1,7.8-1.63c9.09-.19,18.2,0,27.21-1.51a1.59,1.59,0,0,0,1.13-.84,1.87,1.87,0,0,0-.37-1.51,16.89,16.89,0,0,0-3.4-3.26c-7.3-4.5-14.74-8.78-22-13.33a21.33,21.33,0,0,1-4.48-4.47c-1.22-1.43-.85-4.3.53-5.91a4,4,0,0,1,4.32-1.41,81,81,0,0,1,10.23,4.5c6.15,3.24,12.18,6.73,18.29,10.06a2,2,0,0,0,1.57,0,1.71,1.71,0,0,0,.95-2.57c-2.37-4.2-4.83-8.33-7.11-12.58a79.27,79.27,0,0,1-3.25-7.29c-.71-1.73.45-5,1.9-5.67,1.6-.78,4.83-.28,6,1.1,1.7,2,3.38,4.11,4.89,6.29,2.74,3.94,5.28,8,8.1,11.92.5.69,1.9.77,2.92,1,.14,0,.61-.82.68-1.3a34.61,34.61,0,0,0,.49-4.75c0-4.29-.13-8.58-.11-12.87q.06-8,.31-16.07a5.47,5.47,0,0,1,.89-3,13.38,13.38,0,0,1,3.5-3c.88-.53,3.68.83,4.21,1.66a23.54,23.54,0,0,1,3.58,12.18c.21,8,.4,16.08.7,24.11a7.43,7.43,0,0,0,1.14,2.93c.1.2.95.25,1.24.05a6.71,6.71,0,0,0,2.35-2c2-3.79,3.79-7.68,5.68-11.52,1.66-3.35,3.3-6.72,5.06-10a6.48,6.48,0,0,1,6.83-3c2.81.56,4.54,4.31,3.51,7.87a46,46,0,0,1-2.1,6c-2.19,4.89-4.56,9.7-6.76,14.58a8.55,8.55,0,0,0-.5,3.12,2.29,2.29,0,0,0,.7,1.32c.31.34.92.84,1.16.73,3.44-1.47,6.84-3,10.23-4.59,5.83-2.7,11.6-5.54,17.49-8.09,2.11-.91,4.18.2,6,1.45a4.43,4.43,0,0,1,.33,6.95,44.65,44.65,0,0,1-6.45,4.7c-6.08,3.4-12.28,6.58-18.44,9.83-1.37.72-2.66,1.49-2.94,3.2,1.5.45,3,1.26,4.5,1.3,7,.15,13.94,0,20.92.13a41.07,41.07,0,0,1,6.32.8c2.32.41,4.83,4,4.15,6.1s-1.86,3.95-4.2,4.43a37.65,37.65,0,0,1-6.33.79c-5.9.15-11.8.09-17.7.24C381.53,331.76,378.8,331.62,376.07,333.15Z" fill="inherit"/><path d="M174.92,365.33c.25,2.44-1.07,5.27-2.68,5.95-2.44,1-5,1.75-7.42,2.8-6.82,2.95-11.24,8-12.66,15.36-1,5.23-1.74,10.51-2.66,15.75a45.81,45.81,0,0,1-1.19,4.57c-.27,1-2.85,2.59-3.94,2.13-1.39-.58-3.28-1.44-3.66-2.6a34.47,34.47,0,0,1-1.08-7.84,61.5,61.5,0,0,0-1.83-12.62c-2-6.78-5.94-11.21-13.11-12.32-2.62-.4-5.23-.64-7.68-1.93s-3.84-6.18-1.86-8.3a15.57,15.57,0,0,1,3.56-3.14,60.65,60.65,0,0,1,7.22-3.35c6.07-2.42,9.11-7.18,10.16-13.32.81-4.71,1.17-9.5,1.85-14.24.3-2.13,3.76-4.43,6.26-3.89,1.4.31,3.37,1.34,3.74,2.48,1.63,5,2.78,10.24,4.08,15.39a16.78,16.78,0,0,0,10.08,11.64c3.4,1.51,7,2.53,10.35,4.18C173.66,362.64,174.29,364.44,174.92,365.33Z" fill="inherit"/><path d="M247.35,427.69a16.18,16.18,0,0,1-1.37,2.84,5.9,5.9,0,0,1-2.34,2.14c-9.37,3.47-12.12,11.27-13.49,20.1a30.76,30.76,0,0,1-1.93,7.69c-.54,1.22-2.35,2-3.73,2.68-.91.46-3.72-.95-4.15-1.85a25.72,25.72,0,0,1-2-4.37,33.8,33.8,0,0,1-1-6.32c-.51-8-3.93-13.07-12.55-13.76a11.25,11.25,0,0,1-5.72-2.55,5.65,5.65,0,0,1-1.76-4.19,5.33,5.33,0,0,1,2.24-3.88c3.28-1.73,6.88-2.82,10.27-4.34a6.83,6.83,0,0,0,3.85-4.85c1.29-5.72,2.35-11.49,3.56-17.23a4.69,4.69,0,0,1,4.87-3.21,5.74,5.74,0,0,1,2.77,1.33,7.62,7.62,0,0,1,1.65,2.64c2.09,4.85,1.34,10.77,5.26,14.9,3.4,3.57,8.32,4.71,12.43,7.15a6.72,6.72,0,0,1,2.29,2.14A10.61,10.61,0,0,1,247.35,427.69Z" fill="inherit"/><path d="M380.46,153.24c-.8-.61-2.07-1.09-2.29-1.87a23.27,23.27,0,0,1-.91-6.25,31.3,31.3,0,0,0-2.32-10.88,9.11,9.11,0,0,0-5.41-5.56c-4.48-1.64-9.11-2.86-13.6-4.48a3.74,3.74,0,0,1-1.7-2.55,4.21,4.21,0,0,1,.74-2.81,6.94,6.94,0,0,1,2.35-2.08c2.31-1.31,4.67-2.55,7.07-3.7,5.79-2.79,8.62-7.76,9.89-13.72.55-2.58.39-5.31.78-7.94a16.74,16.74,0,0,1,1.4-4.51c.71-1.54,2.29-2.07,3.87-2.4,1.24-.25,3.29,1.22,3.63,2.57,1,4.13,2.15,8.24,2.94,12.42a14.85,14.85,0,0,0,7.18,10.07c3.15,2,6.45,3.72,9.6,5.7a10.57,10.57,0,0,1,2.08,2.36c.75.92.35,3.73-.58,4.43a21.32,21.32,0,0,1-2.51,1.91c-2.36,1.22-4.8,2.28-7.19,3.45a14.48,14.48,0,0,0-8.38,11c-.82,4.7-1.38,9.47-3.9,13.68A2.37,2.37,0,0,1,380.46,153.24Z" fill="inherit"/><path d="M351.43,175.53c-.23,1-.16,2.25-.76,2.88a9.86,9.86,0,0,1-3.85,2.66c-9.6,3.09-14.84,9.84-16.86,19.46a17.34,17.34,0,0,1-1.2,2.91c-.72,1.74-4.29,2.13-5.49.56a9.11,9.11,0,0,1-1.72-2.63,43.57,43.57,0,0,1-1.33-6.2,22.91,22.91,0,0,0-3.55-8.82,11.92,11.92,0,0,0-8.9-6c-2.6-.34-5.41-.14-7.48-2.17a4.63,4.63,0,0,1-1.56-2.64,3.31,3.31,0,0,1,1.41-2.64c3.85-1.71,7.81-3.16,11.75-4.66a12.23,12.23,0,0,0,8.34-10.69c.36-3.17.36-6.39.89-9.52a9.59,9.59,0,0,1,2.1-4.2,3.76,3.76,0,0,1,2.79-1.08,3.41,3.41,0,0,1,2.55,1.42c1.23,2.91,2.17,6,3.14,9,.81,2.52,1.27,5.18,2.3,7.61,1.45,3.46,3.41,6.5,7.34,7.92a52.7,52.7,0,0,1,8.5,4.25C350.62,173.33,350.91,174.62,351.43,175.53Z" fill="inherit"/><path d="M392.29,197.82c8.26.25,14,10.07,10.09,17.24-3.22,5.91-13.44,6.81-17.51,1.48a13.79,13.79,0,0,1-3.06-8.77C381.9,202.83,387.32,197.67,392.29,197.82Z" fill="inherit"/><path d="M305.59,89.81c6.25.11,11.5,4.93,11.21,10.88-.27,5.76-6.16,10.91-11.82,10.21-5.18-.65-10.14-6.16-9.53-11C296.14,94.48,299.43,89.79,305.59,89.81Z" fill="inherit"/><path d="M271.41,222a11.45,11.45,0,0,1,11.83,8.7c.78,3.38-1.89,8.67-5.44,10.77-3.8,2.24-8,1.81-11.74-1.42s-4.09-7.31-3-11.7C264,224.75,267.51,222.18,271.41,222Z" fill="inherit"/><path d="M220.7,314.72c-.19,5.72-4,8.42-9,9.37-3.49.66-8.53-2.87-9.89-6.64a11.74,11.74,0,0,1,.37-9.24,8.33,8.33,0,0,1,10.7-4.13,27,27,0,0,1,4.1,2.38C219.76,308.46,220.79,311.35,220.7,314.72Z" fill="inherit"/><path d="M72.52,324.64a9.7,9.7,0,0,1-4.09-2c-6.47-5.16-5-13.95,1.38-17.3a7.07,7.07,0,0,1,6.1-.66,46.34,46.34,0,0,1,4.41,1.88,8.22,8.22,0,0,1,4.38,9.36C83.64,320.44,79.08,324.25,72.52,324.64Z" fill="inherit"/><path d="M405.14,161.44a7.84,7.84,0,0,1,8.32,5.82,17.64,17.64,0,0,1,.59,4.67c-.17,7.13-7,10.95-13.58,7.6a5.7,5.7,0,0,1-2.28-2.1,12.39,12.39,0,0,1,1.39-13.33A8.41,8.41,0,0,1,405.14,161.44Z" fill="inherit"/><path d="M239.57,351.5c-.09,4.21-4.57,7.88-8.8,7.21-3.26-.51-6.35-3.13-6.9-5.93-.65-3.33-.22-6.4,2.47-8.79a6.46,6.46,0,0,1,5.92-1.7A9,9,0,0,1,239.57,351.5Z" fill="inherit"/><path d="M265,106.85a8,8,0,0,1-7.06,7.33c-4,.52-8.38-3.33-8.53-7.45-.13-3.4.94-6.25,3.95-8.07a5.94,5.94,0,0,1,2.93-1A8.59,8.59,0,0,1,265,106.85Z" fill="inherit"/><path d="M274.61,56.27c-.38,4.29-5,7.88-8.94,7a7.8,7.8,0,0,1-6.38-7.91c.28-4.53,4.06-7.42,8.88-6.79A7.2,7.2,0,0,1,274.61,56.27Z" fill="inherit"/><path d="M76.92,264.92a7.9,7.9,0,0,1,6.84,5.73,6.79,6.79,0,0,1-4,7.76,5.93,5.93,0,0,1-4.5,0A13.26,13.26,0,0,1,70.86,274C68.82,270.63,72.84,264.8,76.92,264.92Z" fill="inherit"/><path d="M436.49,205.73a7,7,0,0,1-5.59-4.29,6.4,6.4,0,0,1,1.5-7.13c3-3.19,6.14-3.54,9.62-1.08a6.44,6.44,0,0,1,2.39,8.18C443.06,204.39,440.18,206.05,436.49,205.73Z" fill="inherit"/><path d="M29.84,257.43c4.12.25,6.56,3,6.49,7.23-.07,3.82-3.26,6.57-7.34,6.34-3.08-.18-6.59-3.07-6.76-5.56A7.44,7.44,0,0,1,29.84,257.43Z" fill="inherit"/><path d="M74.39,360.44a6.68,6.68,0,0,1-4.33,5.91,7.16,7.16,0,0,1-8.31-2.61,5.88,5.88,0,0,1,1.06-8.33,7.14,7.14,0,0,1,7.37-1A6.46,6.46,0,0,1,74.39,360.44Z" fill="inherit"/><path d="M344.21,25.87a6.82,6.82,0,0,1,6.44,5.91c.27,2.85-2.73,6.1-5.9,6.38-4.05.36-7.79-3.11-7.17-6.64A6.73,6.73,0,0,1,344.21,25.87Z" fill="inherit"/><path d="M293.44,431.08c-3.38.17-5.72-2.06-6-5.74-.33-4.26,2.24-7.1,6.34-7,3.54.07,6.24,2.46,6.31,5.57A6.77,6.77,0,0,1,293.44,431.08Z" fill="inherit"/><path d="M174.77,482.78a5.83,5.83,0,0,1,5.9,4,6.64,6.64,0,0,1-1.86,7.05,6.37,6.37,0,0,1-7.15,1.18c-2-.83-3.21-3.55-3-6.57A5.91,5.91,0,0,1,174.77,482.78Z" fill="inherit"/><path d="M281.34,454.47a5.17,5.17,0,0,1-4.3,5.76,6.4,6.4,0,0,1-7.23-4.87c-.62-2.82,2.22-6.45,5.33-6.79S281,450.78,281.34,454.47Z" fill="inherit"/><path d="M349,448.52a5.3,5.3,0,0,1-4.13,5.72,6.51,6.51,0,0,1-7.66-5.87c-.26-2.81,3.08-6.24,5.91-6.07A6.54,6.54,0,0,1,349,448.52Z" fill="inherit"/><path d="M212,65.54c.26,2.4-2.13,4.87-4.92,5.08a4.62,4.62,0,0,1-4.94-3.07c-.72-2.34,1.26-5.39,3.9-6C208.52,61,211.74,63.12,212,65.54Z" fill="inherit"/></g></svg>