<?xml version="1.0" encoding="UTF-8" standalone="no"?><svg xmlns="http://www.w3.org/2000/svg" xmlns:xlink="http://www.w3.org/1999/xlink" data-name="Layer 1" fill="#000000" height="420.8" preserveAspectRatio="xMidYMid meet" version="1" viewBox="-0.0 -0.1 388.7 420.8" width="388.7" zoomAndPan="magnify"><defs><linearGradient gradientUnits="userSpaceOnUse" id="a" x1="67.55" x2="342.99" xlink:actuate="onLoad" xlink:show="other" xlink:type="simple" y1="396.72" y2="1.56"><stop offset="0" stop-color="#5e17eb"/><stop offset="1" stop-color="#d7b0ff"/></linearGradient></defs><path d="M252.82,3.8a1.82,1.82,0,0,1-.52-.08L254.42,3A1.91,1.91,0,0,1,252.82,3.8Zm13.07,0A1.89,1.89,0,1,0,264,1.88,1.89,1.89,0,0,0,265.89,3.77ZM279,3.7a1.82,1.82,0,1,0-1.81-1.82A1.82,1.82,0,0,0,279,3.7Zm13.07,0a1.78,1.78,0,1,0-1.78-1.78A1.78,1.78,0,0,0,292,3.66Zm13.06,0a1.74,1.74,0,1,0-1.74-1.74A1.74,1.74,0,0,0,305.09,3.62Zm13.07-.07a1.67,1.67,0,1,0-1.67-1.67A1.67,1.67,0,0,0,318.16,3.55Zm13.07,0a1.63,1.63,0,1,0-1.63-1.63A1.63,1.63,0,0,0,331.23,3.51Zm-98,13.43a2,2,0,1,0-2-2A2,2,0,0,0,233.22,16.94Zm13.07-.07A1.92,1.92,0,1,0,244.37,15,1.92,1.92,0,0,0,246.29,16.87Zm13.07,0A1.89,1.89,0,1,0,257.47,15,1.89,1.89,0,0,0,259.36,16.84Zm13.07,0A1.89,1.89,0,1,0,270.54,15,1.89,1.89,0,0,0,272.43,16.84Zm13.06-.08A1.81,1.81,0,1,0,283.68,15,1.81,1.81,0,0,0,285.49,16.76Zm13.07,0A1.78,1.78,0,1,0,296.78,15,1.78,1.78,0,0,0,298.56,16.73Zm13.07,0A1.74,1.74,0,1,0,309.89,15,1.74,1.74,0,0,0,311.63,16.69Zm13.06-.11A1.63,1.63,0,1,0,323.06,15,1.63,1.63,0,0,0,324.69,16.58Zm13.07-.11A1.52,1.52,0,1,0,336.24,15,1.52,1.52,0,0,0,337.76,16.47Zm13.07,0A1.49,1.49,0,1,0,349.34,15,1.49,1.49,0,0,0,350.83,16.44ZM202.77,28c0-.11,0-.21,0-.32l-3.52,2.07A2.2,2.2,0,0,0,202.77,28Zm10.85,2.17A2.18,2.18,0,1,0,211.45,28,2.18,2.18,0,0,0,213.62,30.19Zm13.07-.07a2.1,2.1,0,1,0-2.1-2.1A2.1,2.1,0,0,0,226.69,30.12Zm13.07,0A2.07,2.07,0,1,0,237.69,28,2.06,2.06,0,0,0,239.76,30.08Zm13.06,0a2,2,0,1,0-2-2A2,2,0,0,0,252.82,30.05ZM265.89,30a2,2,0,1,0-1.95-2A2,2,0,0,0,265.89,30Zm13.07,0A1.92,1.92,0,1,0,277,28,1.92,1.92,0,0,0,279,29.94ZM292,29.87A1.85,1.85,0,1,0,290.18,28,1.84,1.84,0,0,0,292,29.87Zm13.06,0A1.81,1.81,0,1,0,303.28,28,1.81,1.81,0,0,0,305.09,29.83Zm13.07-.07A1.74,1.74,0,1,0,316.42,28,1.74,1.74,0,0,0,318.16,29.76Zm13.07-.07A1.67,1.67,0,1,0,329.56,28,1.66,1.66,0,0,0,331.23,29.69Zm13.06,0A1.63,1.63,0,1,0,342.66,28,1.64,1.64,0,0,0,344.29,29.65Zm13.07-.07A1.56,1.56,0,1,0,355.8,28,1.56,1.56,0,0,0,357.36,29.58Zm13.07-.08a1.49,1.49,0,0,0,0-3,1.49,1.49,0,1,0,0,3ZM181,43.55A2.45,2.45,0,0,0,183,39.77c-1.41.88-2.8,1.73-4.18,2.57A2.46,2.46,0,0,0,181,43.55ZM194,43.48a2.4,2.4,0,1,0-2.39-2.39A2.39,2.39,0,0,0,194,43.48Zm13.07,0a2.36,2.36,0,1,0-2.36-2.35A2.36,2.36,0,0,0,207.09,43.44Zm13.07,0a2.32,2.32,0,1,0-2.32-2.31A2.31,2.31,0,0,0,220.16,43.4Zm13.06-.1A2.21,2.21,0,1,0,231,41.09,2.2,2.2,0,0,0,233.22,43.3Zm13.07-.08a2.14,2.14,0,1,0-2.14-2.13A2.13,2.13,0,0,0,246.29,43.22Zm13.07,0a2.11,2.11,0,1,0-2.1-2.1A2.1,2.1,0,0,0,259.36,43.19Zm13.07,0a2.11,2.11,0,1,0-2.11-2.1A2.1,2.1,0,0,0,272.43,43.19Zm13.06-.08a2,2,0,1,0-2-2A2,2,0,0,0,285.49,43.11Zm13.07,0a2,2,0,1,0-2-2A2,2,0,0,0,298.56,43.08ZM311.63,43a1.92,1.92,0,1,0-1.92-1.92A1.92,1.92,0,0,0,311.63,43Zm13.06-.11a1.82,1.82,0,1,0-1.81-1.81A1.82,1.82,0,0,0,324.69,42.9Zm13.07-.08A1.74,1.74,0,1,0,336,41.09,1.73,1.73,0,0,0,337.76,42.82Zm13.07,0a1.71,1.71,0,0,0,0-3.41,1.71,1.71,0,1,0,0,3.41Zm13.06,0a1.71,1.71,0,1,0-1.7-1.7A1.7,1.7,0,0,0,363.89,42.79ZM377,42.72a1.64,1.64,0,1,0-1.63-1.63A1.63,1.63,0,0,0,377,42.72ZM161.36,56.65a2.49,2.49,0,0,0,.85-4.84c-1.09.59-2.18,1.16-3.27,1.72a2.57,2.57,0,0,0-.08.62A2.49,2.49,0,0,0,161.36,56.65Zm13.06,0A2.47,2.47,0,1,0,172,54.15,2.48,2.48,0,0,0,174.42,56.62Zm13.07-.08a2.39,2.39,0,1,0-2.39-2.39A2.39,2.39,0,0,0,187.49,56.54Zm13.07,0a2.36,2.36,0,1,0-2.36-2.36A2.36,2.36,0,0,0,200.56,56.51Zm13.06,0a2.32,2.32,0,1,0-2.32-2.32A2.32,2.32,0,0,0,213.62,56.47Zm13.07-.07a2.25,2.25,0,1,0-2.25-2.25A2.25,2.25,0,0,0,226.69,56.4Zm13.07,0a2.21,2.21,0,1,0-2.21-2.21A2.21,2.21,0,0,0,239.76,56.36Zm13.06-.07a2.14,2.14,0,1,0-2.13-2.14A2.14,2.14,0,0,0,252.82,56.29Zm13.07,0a2.1,2.1,0,1,0-2.1-2.1A2.1,2.1,0,0,0,265.89,56.25ZM279,56.18a2,2,0,1,0-2-2A2,2,0,0,0,279,56.18Zm13.07,0a2,2,0,1,0-2-2A2,2,0,0,0,292,56.15Zm13.06-.08a1.92,1.92,0,1,0-1.92-1.92A1.92,1.92,0,0,0,305.09,56.07Zm13.07,0a1.89,1.89,0,1,0-1.88-1.89A1.89,1.89,0,0,0,318.16,56ZM331.23,56a1.81,1.81,0,1,0-1.81-1.81A1.81,1.81,0,0,0,331.23,56Zm13.06-.07a1.74,1.74,0,1,0-1.74-1.74A1.74,1.74,0,0,0,344.29,55.89Zm13.07,0a1.71,1.71,0,1,0-1.7-1.71A1.71,1.71,0,0,0,357.36,55.86Zm13.07-.08a1.63,1.63,0,1,0-1.63-1.63A1.63,1.63,0,0,0,370.43,55.78Zm13.07-.07a1.56,1.56,0,1,0-1.56-1.56A1.55,1.55,0,0,0,383.5,55.71ZM128.69,69.94a2.72,2.72,0,0,0,2.72-2.72,2.68,2.68,0,0,0-.24-1.1q-2.56,1-5.06,1.91A2.7,2.7,0,0,0,128.69,69.94Zm13.06-.11a2.61,2.61,0,1,0-2.6-2.61A2.61,2.61,0,0,0,141.75,69.83Zm13.07,0a2.61,2.61,0,1,0-2.61-2.61A2.61,2.61,0,0,0,154.82,69.83Zm13.07-.07a2.54,2.54,0,1,0-2.54-2.54A2.54,2.54,0,0,0,167.89,69.76Zm13.07,0a2.54,2.54,0,1,0-2.54-2.54A2.54,2.54,0,0,0,181,69.76Zm13.06,0a2.5,2.5,0,1,0-2.5-2.5A2.5,2.5,0,0,0,194,69.72Zm13.07-.07a2.43,2.43,0,1,0-2.43-2.43A2.43,2.43,0,0,0,207.09,69.65Zm13.07,0a2.39,2.39,0,1,0-2.39-2.39A2.39,2.39,0,0,0,220.16,69.61Zm13.06-.11a2.28,2.28,0,1,0-2.28-2.28A2.28,2.28,0,0,0,233.22,69.5Zm13.07-.07a2.21,2.21,0,1,0-2.21-2.21A2.21,2.21,0,0,0,246.29,69.43Zm13.07,0a2.17,2.17,0,1,0-2.18-2.17A2.17,2.17,0,0,0,259.36,69.39Zm13.07,0a2.17,2.17,0,1,0-2.18-2.17A2.17,2.17,0,0,0,272.43,69.39Zm13.06-.07a2.1,2.1,0,1,0-2.1-2.1A2.1,2.1,0,0,0,285.49,69.32Zm13.07,0a2.07,2.07,0,1,0-2.07-2.06A2.06,2.06,0,0,0,298.56,69.28Zm13.07-.07a2,2,0,1,0-2-2A2,2,0,0,0,311.63,69.21Zm13.06-.11a1.88,1.88,0,1,0-1.88-1.88A1.89,1.89,0,0,0,324.69,69.1ZM337.76,69A1.81,1.81,0,1,0,336,67.22,1.81,1.81,0,0,0,337.76,69ZM350.83,69a1.74,1.74,0,1,0-1.74-1.74A1.74,1.74,0,0,0,350.83,69Zm13.06,0a1.74,1.74,0,1,0-1.73-1.74A1.73,1.73,0,0,0,363.89,69Zm13.07,0a1.7,1.7,0,1,0-1.7-1.7A1.7,1.7,0,0,0,377,68.92Zm11.58-2.36a1.62,1.62,0,0,0,.16,1.6C388.65,67.63,388.6,67.09,388.54,66.56ZM83,83.26a3,3,0,0,0,3-3,1.5,1.5,0,0,0,0-.22l-5.63,1.47A3,3,0,0,0,83,83.26Zm13.07,0a3,3,0,0,0,.27-5.92l-2,.54A3,3,0,0,0,96,83.26Zm13.07-.07a2.9,2.9,0,1,0-2.9-2.9A2.9,2.9,0,0,0,109.09,83.19Zm13.06,0a2.87,2.87,0,1,0-2.86-2.86A2.86,2.86,0,0,0,122.15,83.15Zm13.07,0a2.83,2.83,0,1,0-2.82-2.82A2.83,2.83,0,0,0,135.22,83.11Zm13.07,0a2.79,2.79,0,1,0-2.79-2.79A2.79,2.79,0,0,0,148.29,83.08ZM161.36,83a2.72,2.72,0,1,0-2.72-2.71A2.71,2.71,0,0,0,161.36,83Zm13.06,0a2.68,2.68,0,1,0-2.68-2.68A2.68,2.68,0,0,0,174.42,83Zm13.07,0a2.65,2.65,0,1,0-2.65-2.64A2.64,2.64,0,0,0,187.49,82.93Zm13.07,0A2.61,2.61,0,1,0,198,80.29,2.61,2.61,0,0,0,200.56,82.9Zm13.06-.08a2.54,2.54,0,1,0-2.53-2.53A2.54,2.54,0,0,0,213.62,82.82Zm13.07,0a2.5,2.5,0,1,0-2.5-2.5A2.5,2.5,0,0,0,226.69,82.79Zm13.07-.08a2.43,2.43,0,1,0-2.43-2.42A2.42,2.42,0,0,0,239.76,82.71Zm13.06-.07a2.36,2.36,0,1,0-2.35-2.35A2.35,2.35,0,0,0,252.82,82.64Zm13.07,0a2.32,2.32,0,1,0-2.32-2.32A2.32,2.32,0,0,0,265.89,82.61ZM279,82.53a2.25,2.25,0,1,0-2.25-2.24A2.24,2.24,0,0,0,279,82.53Zm13.07,0a2.21,2.21,0,1,0-2.21-2.21A2.21,2.21,0,0,0,292,82.5Zm13.06-.11a2.11,2.11,0,1,0-2.1-2.1A2.1,2.1,0,0,0,305.09,82.39Zm13.07,0a2.07,2.07,0,1,0-2.07-2.06A2.07,2.07,0,0,0,318.16,82.35Zm13.07,0a2,2,0,1,0-2-2A2,2,0,0,0,331.23,82.32Zm13.06-.11a1.92,1.92,0,1,0-1.92-1.92A1.92,1.92,0,0,0,344.29,82.21Zm13.07,0a1.89,1.89,0,1,0-1.88-1.88A1.89,1.89,0,0,0,357.36,82.17Zm13.07-.07a1.82,1.82,0,1,0-1.81-1.81A1.81,1.81,0,0,0,370.43,82.1ZM383.5,82a1.74,1.74,0,1,0-1.74-1.74A1.73,1.73,0,0,0,383.5,82ZM50.29,96.54a3.18,3.18,0,0,0,3.18-3.19,3.14,3.14,0,0,0-1-2.34c-1.79.86-3.55,1.77-5.29,2.76A3.18,3.18,0,0,0,50.29,96.54Zm13.06,0a3.16,3.16,0,1,0-3.15-3.16A3.17,3.17,0,0,0,63.35,96.51Zm13.07-.08a3.08,3.08,0,1,0-3.08-3.08A3.08,3.08,0,0,0,76.42,96.43Zm13.07,0a3.08,3.08,0,1,0-3.08-3.08A3.08,3.08,0,0,0,89.49,96.43Zm13.06,0a3,3,0,1,0-3-3.05A3.06,3.06,0,0,0,102.55,96.4Zm13.07-.08a3,3,0,1,0-3-3A3,3,0,0,0,115.62,96.32Zm13.07,0a3,3,0,1,0-3-3A3,3,0,0,0,128.69,96.32Zm13.06-.1a2.87,2.87,0,1,0-2.86-2.87A2.87,2.87,0,0,0,141.75,96.22Zm13.07-.08A2.79,2.79,0,1,0,152,93.35,2.79,2.79,0,0,0,154.82,96.14Zm13.07,0a2.76,2.76,0,1,0-2.75-2.76A2.76,2.76,0,0,0,167.89,96.11Zm13.07,0a2.76,2.76,0,1,0-2.76-2.76A2.76,2.76,0,0,0,181,96.11ZM194,96a2.68,2.68,0,1,0-2.68-2.68A2.68,2.68,0,0,0,194,96Zm13.07,0a2.65,2.65,0,1,0-2.64-2.65A2.65,2.65,0,0,0,207.09,96Zm13.07,0a2.61,2.61,0,1,0-2.61-2.61A2.61,2.61,0,0,0,220.16,96Zm13.06-.11a2.5,2.5,0,1,0-2.5-2.5A2.49,2.49,0,0,0,233.22,95.85Zm13.07-.07a2.43,2.43,0,1,0-2.43-2.43A2.43,2.43,0,0,0,246.29,95.78Zm13.07,0a2.4,2.4,0,1,0-2.39-2.4A2.4,2.4,0,0,0,259.36,95.75Zm13.07,0a2.4,2.4,0,1,0-2.4-2.4A2.4,2.4,0,0,0,272.43,95.75Zm13.06-.08a2.32,2.32,0,1,0-2.32-2.32A2.32,2.32,0,0,0,285.49,95.67Zm13.07-.07a2.25,2.25,0,1,0-2.25-2.25A2.25,2.25,0,0,0,298.56,95.6Zm13.07,0a2.21,2.21,0,1,0-2.21-2.21A2.21,2.21,0,0,0,311.63,95.56Zm13.06-.14a2.07,2.07,0,1,0-2.06-2.07A2.07,2.07,0,0,0,324.69,95.42Zm13.07,0a2,2,0,1,0-2-2A2,2,0,0,0,337.76,95.38Zm13.07-.11a1.92,1.92,0,1,0-1.92-1.92A1.92,1.92,0,0,0,350.83,95.27Zm13.06,0A1.92,1.92,0,1,0,362,93.35,1.92,1.92,0,0,0,363.89,95.27Zm13.07,0a1.89,1.89,0,1,0-1.88-1.89A1.89,1.89,0,0,0,377,95.24Zm-343,11.18a3.19,3.19,0,0,0-.92-2.25q-2.31,2.11-4.57,4.54a3.22,3.22,0,0,0,5.49-2.29Zm9.84,3.19a3.19,3.19,0,1,0-3.19-3.19A3.19,3.19,0,0,0,43.75,109.61Zm13.07,0a3.15,3.15,0,1,0-3.15-3.15A3.15,3.15,0,0,0,56.82,109.57Zm13.07,0a3.12,3.12,0,1,0-3.12-3.12A3.12,3.12,0,0,0,69.89,109.54Zm13.06,0a3.08,3.08,0,1,0-3.08-3.08A3.08,3.08,0,0,0,83,109.5Zm13.07,0a3,3,0,1,0-3-3A3,3,0,0,0,96,109.46Zm13.07-.07a3,3,0,1,0-3-3A3,3,0,0,0,109.09,109.39Zm13.06,0a3,3,0,1,0-3-3A3,3,0,0,0,122.15,109.39Zm13.07-.07a2.9,2.9,0,1,0-2.9-2.9A2.9,2.9,0,0,0,135.22,109.32Zm13.07,0a2.86,2.86,0,1,0-2.86-2.86A2.86,2.86,0,0,0,148.29,109.28Zm13.07-.07a2.79,2.79,0,1,0-2.79-2.79A2.79,2.79,0,0,0,161.36,109.21Zm13.06,0a2.75,2.75,0,1,0-2.75-2.75A2.76,2.76,0,0,0,174.42,109.17Zm13.07-.07a2.68,2.68,0,1,0-2.68-2.68A2.68,2.68,0,0,0,187.49,109.1Zm13.07,0a2.65,2.65,0,1,0-2.65-2.65A2.65,2.65,0,0,0,200.56,109.07Zm13.06,0a2.61,2.61,0,1,0-2.61-2.61A2.61,2.61,0,0,0,213.62,109Zm13.07-.07a2.54,2.54,0,1,0-2.54-2.54A2.54,2.54,0,0,0,226.69,109Zm13.07,0a2.5,2.5,0,1,0-2.5-2.5A2.5,2.5,0,0,0,239.76,108.92Zm13.06-.07a2.43,2.43,0,1,0-2.42-2.43A2.43,2.43,0,0,0,252.82,108.85Zm13.07,0a2.39,2.39,0,1,0-2.39-2.39A2.39,2.39,0,0,0,265.89,108.81Zm13.07-.07a2.32,2.32,0,1,0-2.32-2.32A2.32,2.32,0,0,0,279,108.74Zm13.07-.07a2.25,2.25,0,1,0-2.25-2.25A2.24,2.24,0,0,0,292,108.67Zm13.06,0a2.21,2.21,0,1,0-2.21-2.21A2.21,2.21,0,0,0,305.09,108.63Zm13.07-.07a2.14,2.14,0,1,0-2.14-2.14A2.14,2.14,0,0,0,318.16,108.56Zm13.07-.07a2.07,2.07,0,1,0-2.07-2.07A2.07,2.07,0,0,0,331.23,108.49Zm13.06,0a2,2,0,1,0-2-2A2,2,0,0,0,344.29,108.45Zm13.07-.11a1.92,1.92,0,1,0-1.92-1.92A1.92,1.92,0,0,0,357.36,108.34Zm13.07,0a1.88,1.88,0,1,0-1.89-1.88A1.88,1.88,0,0,0,370.43,108.3Zm13.07-3.69a1.81,1.81,0,1,0,1.81,1.81A1.81,1.81,0,0,0,383.5,104.61ZM24.15,122.82a3.34,3.34,0,1,0-3.33-3.33A3.34,3.34,0,0,0,24.15,122.82Zm13.07-.07A3.26,3.26,0,1,0,34,119.49,3.26,3.26,0,0,0,37.22,122.75Zm13.07,0A3.26,3.26,0,1,0,47,119.49,3.26,3.26,0,0,0,50.29,122.75Zm13.06,0a3.23,3.23,0,1,0-3.22-3.22A3.23,3.23,0,0,0,63.35,122.71Zm13.07-.07a3.15,3.15,0,1,0-3.15-3.15A3.15,3.15,0,0,0,76.42,122.64Zm13.07,0a3.15,3.15,0,1,0-3.16-3.15A3.15,3.15,0,0,0,89.49,122.64Zm13.06,0a3.12,3.12,0,1,0-3.11-3.11A3.12,3.12,0,0,0,102.55,122.6Zm13.07,0a3.08,3.08,0,1,0-3.08-3.08A3.08,3.08,0,0,0,115.62,122.57Zm13.07,0a3,3,0,1,0-3-3A3,3,0,0,0,128.69,122.53Zm13.06-.11a2.94,2.94,0,1,0-2.93-2.93A2.93,2.93,0,0,0,141.75,122.42Zm13.07-.07a2.86,2.86,0,1,0-2.86-2.86A2.86,2.86,0,0,0,154.82,122.35Zm13.07,0a2.83,2.83,0,1,0-2.83-2.82A2.83,2.83,0,0,0,167.89,122.31Zm13.07,0a2.83,2.83,0,1,0-2.83-2.82A2.82,2.82,0,0,0,181,122.31Zm13.06,0a2.79,2.79,0,1,0-2.79-2.79A2.79,2.79,0,0,0,194,122.28Zm13.07-.07a2.72,2.72,0,1,0-2.72-2.72A2.72,2.72,0,0,0,207.09,122.21Zm13.07,0a2.68,2.68,0,1,0-2.68-2.68A2.68,2.68,0,0,0,220.16,122.17Zm13.06-.11a2.57,2.57,0,1,0-2.57-2.57A2.57,2.57,0,0,0,233.22,122.06Zm13.07-.07a2.5,2.5,0,1,0-2.5-2.5A2.5,2.5,0,0,0,246.29,122Zm13.07-.07a2.43,2.43,0,1,0-2.43-2.43A2.43,2.43,0,0,0,259.36,121.92Zm13.07,0a2.43,2.43,0,1,0-2.43-2.43A2.42,2.42,0,0,0,272.43,121.92Zm13.06,0a2.39,2.39,0,1,0-2.39-2.39A2.39,2.39,0,0,0,285.49,121.88Zm13.07-.07a2.32,2.32,0,1,0-2.32-2.32A2.32,2.32,0,0,0,298.56,121.81Zm13.07-.08a2.25,2.25,0,1,0-2.25-2.24A2.24,2.24,0,0,0,311.63,121.73Zm13.06-.1a2.14,2.14,0,1,0-2.13-2.14A2.14,2.14,0,0,0,324.69,121.63Zm13.07-.08a2.07,2.07,0,1,0-2.06-2.06A2.07,2.07,0,0,0,337.76,121.55Zm13.07,0a2,2,0,1,0-2-2A2,2,0,0,0,350.83,121.52Zm13.06,0a2,2,0,1,0-2-2A2,2,0,0,0,363.89,121.52Zm13.07-4a1.92,1.92,0,1,0,1.92,1.92A1.92,1.92,0,0,0,377,117.57ZM17.62,136.07a3.52,3.52,0,1,0-3.52-3.52A3.51,3.51,0,0,0,17.62,136.07ZM30.69,136a3.45,3.45,0,1,0-3.45-3.45A3.44,3.44,0,0,0,30.69,136Zm13.06-6.89a3.45,3.45,0,1,0,3.44,3.44A3.44,3.44,0,0,0,43.75,129.11Zm13.07,0a3.41,3.41,0,1,0,3.41,3.4A3.41,3.41,0,0,0,56.82,129.15Zm13.07.07a3.34,3.34,0,1,0,3.33,3.33A3.34,3.34,0,0,0,69.89,129.22ZM83,135.89a3.34,3.34,0,1,0-3.33-3.34A3.34,3.34,0,0,0,83,135.89ZM96,135.82a3.27,3.27,0,1,0-3.26-3.27A3.26,3.26,0,0,0,96,135.82Zm13.07,0a3.23,3.23,0,1,0-3.23-3.23A3.22,3.22,0,0,0,109.09,135.78Zm13.06-.07a3.16,3.16,0,1,0-3.15-3.16A3.15,3.15,0,0,0,122.15,135.71Zm13.07,0a3.16,3.16,0,1,0-3.15-3.16A3.15,3.15,0,0,0,135.22,135.71Zm13.07-.08a3.08,3.08,0,1,0-3.08-3.08A3.07,3.07,0,0,0,148.29,135.63Zm13.07,0a3,3,0,1,0-3.05-3A3,3,0,0,0,161.36,135.6Zm13.06-.07a3,3,0,1,0-3-3A3,3,0,0,0,174.42,135.53Zm13.07,0a2.94,2.94,0,1,0-2.94-2.94A2.93,2.93,0,0,0,187.49,135.49Zm13.07-.07a2.87,2.87,0,1,0-2.87-2.87A2.86,2.86,0,0,0,200.56,135.42Zm13.06-.08a2.79,2.79,0,1,0-2.79-2.79A2.78,2.78,0,0,0,213.62,135.34Zm13.07,0a2.76,2.76,0,1,0-2.75-2.76A2.75,2.75,0,0,0,226.69,135.31Zm13.07-.07a2.69,2.69,0,1,0-2.68-2.69A2.68,2.68,0,0,0,239.76,135.24Zm13.06,0a2.65,2.65,0,1,0-2.64-2.65A2.64,2.64,0,0,0,252.82,135.2Zm13.07-.07a2.58,2.58,0,1,0-2.57-2.58A2.57,2.57,0,0,0,265.89,135.13Zm13.07-.08a2.5,2.5,0,1,0-2.5-2.5A2.49,2.49,0,0,0,279,135.05ZM292,135a2.47,2.47,0,1,0-2.47-2.47A2.46,2.46,0,0,0,292,135Zm13.06-.07a2.4,2.4,0,1,0-2.39-2.4A2.39,2.39,0,0,0,305.09,135Zm13.07-.08a2.32,2.32,0,1,0-2.32-2.32A2.32,2.32,0,0,0,318.16,134.87Zm13.07-.07a2.25,2.25,0,1,0-2.25-2.25A2.24,2.24,0,0,0,331.23,134.8Zm13.06,0a2.22,2.22,0,1,0-2.21-2.22A2.21,2.21,0,0,0,344.29,134.77Zm13.07-.11a2.11,2.11,0,1,0-2.1-2.11A2.1,2.1,0,0,0,357.36,134.66Zm13.07-4.17a2.07,2.07,0,1,0,2.06,2.06A2.07,2.07,0,0,0,370.43,130.49ZM11.08,149.14a3.52,3.52,0,1,0-3.51-3.52A3.52,3.52,0,0,0,11.08,149.14Zm13.07-7a3.52,3.52,0,1,0,3.52,3.51A3.51,3.51,0,0,0,24.15,142.11Zm13.07.07a3.44,3.44,0,1,0,3.44,3.44A3.44,3.44,0,0,0,37.22,142.18Zm13.07,0a3.44,3.44,0,1,0,3.44,3.44A3.44,3.44,0,0,0,50.29,142.18Zm13.06,0a3.41,3.41,0,1,0,3.41,3.4A3.4,3.4,0,0,0,63.35,142.22Zm13.07.07a3.34,3.34,0,1,0,3.33,3.33A3.33,3.33,0,0,0,76.42,142.29Zm13.07,0a3.34,3.34,0,1,0,3.33,3.33A3.34,3.34,0,0,0,89.49,142.29Zm13.06,6.59a3.26,3.26,0,1,0-3.26-3.26A3.26,3.26,0,0,0,102.55,148.88Zm13.07,0a3.23,3.23,0,1,0-3.22-3.23A3.23,3.23,0,0,0,115.62,148.85Zm13.07-.08a3.15,3.15,0,1,0-3.15-3.15A3.15,3.15,0,0,0,128.69,148.77Zm13.06-.07a3.08,3.08,0,1,0-3.07-3.08A3.07,3.07,0,0,0,141.75,148.7Zm13.07,0a3,3,0,1,0-3-3A3.06,3.06,0,0,0,154.82,148.67Zm13.07-.08a3,3,0,1,0-3-3A3,3,0,0,0,167.89,148.59Zm13.07,0a3,3,0,1,0-3-3A3,3,0,0,0,181,148.59Zm13.06,0a2.94,2.94,0,1,0-2.93-2.94A2.94,2.94,0,0,0,194,148.56Zm13.07-.08a2.86,2.86,0,1,0-2.86-2.86A2.86,2.86,0,0,0,207.09,148.48Zm13.07-.07a2.79,2.79,0,1,0-2.79-2.79A2.79,2.79,0,0,0,220.16,148.41Zm13.06-.11a2.68,2.68,0,1,0-2.68-2.68A2.68,2.68,0,0,0,233.22,148.3Zm13.07,0a2.65,2.65,0,1,0-2.64-2.65A2.65,2.65,0,0,0,246.29,148.27Zm13.07-.08a2.57,2.57,0,1,0-2.57-2.57A2.57,2.57,0,0,0,259.36,148.19Zm13.07,0a2.57,2.57,0,1,0-2.58-2.57A2.57,2.57,0,0,0,272.43,148.19Zm13.06-.07a2.5,2.5,0,1,0-2.5-2.5A2.5,2.5,0,0,0,285.49,148.12Zm13.07,0a2.47,2.47,0,1,0-2.46-2.47A2.47,2.47,0,0,0,298.56,148.09Zm13.07-.08a2.39,2.39,0,1,0-2.39-2.39A2.39,2.39,0,0,0,311.63,148Zm13.06-.14a2.25,2.25,0,1,0-2.24-2.25A2.25,2.25,0,0,0,324.69,147.87Zm13.07,0a2.21,2.21,0,1,0-2.21-2.21A2.21,2.21,0,0,0,337.76,147.83Zm13.07-.11a2.1,2.1,0,1,0-2.1-2.1A2.1,2.1,0,0,0,350.83,147.72Zm13.06-4.2a2.1,2.1,0,1,0,2.11,2.1A2.1,2.1,0,0,0,363.89,143.52ZM8.14,158.69a3.59,3.59,0,0,0-3.59-3.59,3.41,3.41,0,0,0-1.11.2c-.47,2-.88,4-1.25,6.07a3.54,3.54,0,0,0,2.36.91A3.59,3.59,0,0,0,8.14,158.69Zm9.48-3.59a3.59,3.59,0,1,0,3.59,3.59A3.59,3.59,0,0,0,17.62,155.1Zm13.07,0a3.55,3.55,0,1,0,3.55,3.55A3.55,3.55,0,0,0,30.69,155.14Zm13.06,0a3.52,3.52,0,1,0,3.52,3.52A3.52,3.52,0,0,0,43.75,155.17Zm13.07,0a3.48,3.48,0,1,0,3.48,3.48A3.48,3.48,0,0,0,56.82,155.21Zm13.07,0a3.44,3.44,0,1,0,3.44,3.44A3.45,3.45,0,0,0,69.89,155.25Zm13.06,0a3.41,3.41,0,1,0,3.41,3.41A3.41,3.41,0,0,0,83,155.28Zm13.07.08a3.33,3.33,0,1,0,3.33,3.33A3.33,3.33,0,0,0,96,155.36Zm13.07,0a3.3,3.3,0,1,0,3.29,3.3A3.3,3.3,0,0,0,109.09,155.39ZM122.15,162a3.26,3.26,0,1,0-3.26-3.26A3.26,3.26,0,0,0,122.15,162Zm13.07-.07a3.19,3.19,0,1,0-3.19-3.19A3.19,3.19,0,0,0,135.22,161.88Zm13.07,0a3.15,3.15,0,1,0-3.15-3.15A3.15,3.15,0,0,0,148.29,161.84Zm13.07-.07a3.08,3.08,0,1,0-3.08-3.08A3.08,3.08,0,0,0,161.36,161.77Zm13.06,0a3,3,0,1,0-3-3A3,3,0,0,0,174.42,161.73Zm13.07-.07a3,3,0,1,0-3-3A3,3,0,0,0,187.49,161.66Zm13.07,0a2.94,2.94,0,1,0-2.94-2.93A2.93,2.93,0,0,0,200.56,161.62Zm13.06-.07a2.86,2.86,0,1,0-2.86-2.86A2.87,2.87,0,0,0,213.62,161.55Zm13.07,0a2.83,2.83,0,1,0-2.83-2.83A2.83,2.83,0,0,0,226.69,161.52Zm13.07,0a2.79,2.79,0,1,0-2.79-2.79A2.79,2.79,0,0,0,239.76,161.48Zm13.06-.11a2.68,2.68,0,1,0-2.68-2.68A2.68,2.68,0,0,0,252.82,161.37Zm13.07,0a2.65,2.65,0,1,0-2.64-2.64A2.65,2.65,0,0,0,265.89,161.33Zm13.07-.07a2.57,2.57,0,1,0-2.57-2.57A2.57,2.57,0,0,0,279,161.26Zm13.07-.07a2.5,2.5,0,1,0-2.5-2.5A2.5,2.5,0,0,0,292,161.19Zm13.06,0a2.47,2.47,0,1,0-2.46-2.46A2.47,2.47,0,0,0,305.09,161.15Zm13.07-.07a2.39,2.39,0,1,0-2.39-2.39A2.39,2.39,0,0,0,318.16,161.08Zm13.07-.07a2.32,2.32,0,1,0-2.32-2.32A2.32,2.32,0,0,0,331.23,161Zm13.06-.07a2.25,2.25,0,1,0-2.24-2.25A2.25,2.25,0,0,0,344.29,160.94Zm13.07-4.43a2.18,2.18,0,1,0,2.18,2.18A2.18,2.18,0,0,0,357.36,156.51ZM1,169.4c-.21,1.75-.39,3.5-.53,5.25a3.79,3.79,0,0,0,1.36-2.89A3.8,3.8,0,0,0,1,169.4ZM11.08,168a3.77,3.77,0,1,0,3.77,3.77A3.76,3.76,0,0,0,11.08,168Zm13.07,0a3.74,3.74,0,1,0,3.73,3.74A3.73,3.73,0,0,0,24.15,168Zm13.07.08a3.66,3.66,0,1,0,3.66,3.66A3.66,3.66,0,0,0,37.22,168.1Zm13.07,0A3.66,3.66,0,1,0,54,171.76,3.65,3.65,0,0,0,50.29,168.1Zm13.06,0A3.63,3.63,0,1,0,67,171.76,3.62,3.62,0,0,0,63.35,168.13Zm13.07.11a3.52,3.52,0,1,0,3.51,3.52A3.51,3.51,0,0,0,76.42,168.24Zm13.07,0A3.52,3.52,0,1,0,93,171.76,3.52,3.52,0,0,0,89.49,168.24Zm13.06,0a3.52,3.52,0,1,0,3.52,3.52A3.51,3.51,0,0,0,102.55,168.24Zm13.07.07a3.45,3.45,0,1,0,3.44,3.45A3.44,3.44,0,0,0,115.62,168.31Zm13.07,0a3.41,3.41,0,1,0,3.4,3.41A3.41,3.41,0,0,0,128.69,168.35Zm13.06,6.7a3.3,3.3,0,1,0-3.29-3.29A3.29,3.29,0,0,0,141.75,175.05Zm13.07,0a3.27,3.27,0,1,0-3.26-3.26A3.26,3.26,0,0,0,154.82,175Zm13.07-.08a3.19,3.19,0,1,0-3.19-3.18A3.18,3.18,0,0,0,167.89,174.94Zm13.07,0a3.19,3.19,0,1,0-3.19-3.18A3.18,3.18,0,0,0,181,174.94Zm13.06,0a3.16,3.16,0,1,0-3.15-3.15A3.16,3.16,0,0,0,194,174.91Zm13.07-.07a3.08,3.08,0,1,0-3.08-3.08A3.08,3.08,0,0,0,207.09,174.84Zm13.07-.08a3,3,0,1,0-3-3A3,3,0,0,0,220.16,174.76Zm13.06-.14a2.87,2.87,0,1,0-2.86-2.86A2.86,2.86,0,0,0,233.22,174.62Zm13.07,0a2.83,2.83,0,1,0-2.82-2.82A2.83,2.83,0,0,0,246.29,174.58Zm13.07,0a2.79,2.79,0,1,0-2.79-2.79A2.79,2.79,0,0,0,259.36,174.55Zm13.07,0a2.79,2.79,0,1,0-2.79-2.79A2.79,2.79,0,0,0,272.43,174.55Zm13.06-.11a2.69,2.69,0,1,0-2.68-2.68A2.68,2.68,0,0,0,285.49,174.44Zm13.07,0a2.65,2.65,0,1,0-2.65-2.64A2.64,2.64,0,0,0,298.56,174.4Zm13.07-.07a2.58,2.58,0,1,0-2.58-2.57A2.57,2.57,0,0,0,311.63,174.33Zm13.06-.15a2.43,2.43,0,1,0-2.42-2.42A2.42,2.42,0,0,0,324.69,174.18Zm13.07-.07a2.36,2.36,0,1,0-2.35-2.35A2.36,2.36,0,0,0,337.76,174.11Zm13.07,0a2.32,2.32,0,1,0-2.32-2.31A2.31,2.31,0,0,0,350.83,174.07Zm11.28-3.78a2.25,2.25,0,0,0-.49,1.06C361.78,171,361.94,170.65,362.11,170.29ZM4.55,181a3.88,3.88,0,1,0,3.88,3.87A3.88,3.88,0,0,0,4.55,181Zm13.07.07a3.81,3.81,0,1,0,3.8,3.8A3.81,3.81,0,0,0,17.62,181Zm13.07,0a3.77,3.77,0,1,0,3.76,3.77A3.77,3.77,0,0,0,30.69,181.05Zm13.06,0a3.74,3.74,0,1,0,3.73,3.73A3.73,3.73,0,0,0,43.75,181.09Zm13.07,0a3.7,3.7,0,1,0,3.7,3.69A3.7,3.7,0,0,0,56.82,181.13Zm13.07,0a3.66,3.66,0,1,0,3.66,3.66A3.66,3.66,0,0,0,69.89,181.16Zm13.06.08a3.59,3.59,0,1,0,3.59,3.58A3.58,3.58,0,0,0,83,181.24Zm13.07,0a3.59,3.59,0,1,0,3.59,3.58A3.58,3.58,0,0,0,96,181.24Zm13.07.07a3.52,3.52,0,1,0,3.51,3.51A3.52,3.52,0,0,0,109.09,181.31Zm13.06,0a3.48,3.48,0,1,0,3.48,3.48A3.47,3.47,0,0,0,122.15,181.34Zm13.07,0a3.45,3.45,0,1,0,3.44,3.44A3.44,3.44,0,0,0,135.22,181.38Zm13.07.07a3.37,3.37,0,1,0,3.37,3.37A3.37,3.37,0,0,0,148.29,181.45Zm13.07,0a3.34,3.34,0,1,0,3.33,3.33A3.33,3.33,0,0,0,161.36,181.49Zm13.06,6.59a3.26,3.26,0,1,0-3.26-3.26A3.26,3.26,0,0,0,174.42,188.08Zm13.07-.07a3.19,3.19,0,1,0-3.19-3.19A3.19,3.19,0,0,0,187.49,188Zm13.07,0a3.16,3.16,0,1,0-3.16-3.16A3.16,3.16,0,0,0,200.56,188Zm13.06-.08a3.08,3.08,0,1,0-3.08-3.08A3.08,3.08,0,0,0,213.62,187.9Zm13.07-.07a3,3,0,1,0-3-3A3,3,0,0,0,226.69,187.83Zm13.07,0a3,3,0,1,0-3-3A3,3,0,0,0,239.76,187.79Zm13.06-.1a2.87,2.87,0,1,0-2.86-2.87A2.87,2.87,0,0,0,252.82,187.69Zm13.07,0a2.83,2.83,0,1,0-2.82-2.83A2.83,2.83,0,0,0,265.89,187.65Zm13.07-.07a2.76,2.76,0,1,0-2.75-2.76A2.76,2.76,0,0,0,279,187.58ZM292,187.5a2.68,2.68,0,1,0-2.69-2.68A2.68,2.68,0,0,0,292,187.5Zm13.06-.07a2.61,2.61,0,1,0-2.61-2.61A2.61,2.61,0,0,0,305.09,187.43Zm13.07,0a2.58,2.58,0,1,0-2.57-2.58A2.58,2.58,0,0,0,318.16,187.4Zm13.07-.08a2.5,2.5,0,1,0-2.5-2.5A2.5,2.5,0,0,0,331.23,187.32Zm13.06-.11a2.39,2.39,0,1,0-2.39-2.39A2.4,2.4,0,0,0,344.29,187.21ZM355,184.82c0,.05,0,.1,0,.15l1.05-2.11A2.34,2.34,0,0,0,355,184.82ZM0,194.57c.07,2.15.17,4.3.31,6.43a3.83,3.83,0,0,0,1.58-3.11A3.87,3.87,0,0,0,0,194.57Zm11.08,7.2a3.88,3.88,0,1,0-3.87-3.88A3.88,3.88,0,0,0,11.08,201.77Zm13.07-7.68a3.8,3.8,0,1,0,3.81,3.8A3.8,3.8,0,0,0,24.15,194.09Zm13.07.07A3.73,3.73,0,1,0,41,197.89,3.73,3.73,0,0,0,37.22,194.16Zm13.07,0A3.73,3.73,0,1,0,54,197.89,3.73,3.73,0,0,0,50.29,194.16Zm13.06,0a3.7,3.7,0,1,0,3.7,3.7A3.7,3.7,0,0,0,63.35,194.19Zm13.07.11A3.59,3.59,0,1,0,80,197.89,3.59,3.59,0,0,0,76.42,194.3Zm13.07,0a3.59,3.59,0,1,0,3.58,3.59A3.59,3.59,0,0,0,89.49,194.3Zm13.06,0a3.59,3.59,0,1,0,3.59,3.59A3.58,3.58,0,0,0,102.55,194.3Zm13.07.08a3.51,3.51,0,1,0,3.52,3.51A3.51,3.51,0,0,0,115.62,194.38Zm13.07,0a3.48,3.48,0,1,0,3.48,3.48A3.48,3.48,0,0,0,128.69,194.41Zm13.06.11a3.37,3.37,0,1,0,3.37,3.37A3.36,3.36,0,0,0,141.75,194.52Zm13.07,0a3.33,3.33,0,1,0,3.34,3.33A3.33,3.33,0,0,0,154.82,194.56Zm13.07.07a3.26,3.26,0,1,0,3.26,3.26A3.26,3.26,0,0,0,167.89,194.63ZM181,201.15a3.26,3.26,0,1,0-3.26-3.26A3.26,3.26,0,0,0,181,201.15Zm13.06-.07a3.19,3.19,0,1,0-3.19-3.19A3.19,3.19,0,0,0,194,201.08Zm13.07,0a3.15,3.15,0,1,0-3.15-3.15A3.15,3.15,0,0,0,207.09,201Zm13.07-.07a3.08,3.08,0,1,0-3.08-3.08A3.08,3.08,0,0,0,220.16,201Zm13.06-.11a3,3,0,1,0-3-3A3,3,0,0,0,233.22,200.86Zm13.07-.11a2.86,2.86,0,1,0-2.86-2.86A2.86,2.86,0,0,0,246.29,200.75Zm13.07,0a2.83,2.83,0,1,0-2.83-2.83A2.83,2.83,0,0,0,259.36,200.72Zm13.07,0a2.83,2.83,0,1,0-2.83-2.83A2.83,2.83,0,0,0,272.43,200.72Zm13.06-.08a2.75,2.75,0,1,0-2.75-2.75A2.76,2.76,0,0,0,285.49,200.64Zm13.07-.07a2.68,2.68,0,1,0-2.68-2.68A2.68,2.68,0,0,0,298.56,200.57Zm13.07-.07a2.61,2.61,0,1,0-2.61-2.61A2.61,2.61,0,0,0,311.63,200.5Zm13.06-.11a2.5,2.5,0,1,0-2.5-2.5A2.5,2.5,0,0,0,324.69,200.39Zm13.07-.11a2.39,2.39,0,1,0-2.39-2.39A2.39,2.39,0,0,0,337.76,200.28Zm12-4.46a2.27,2.27,0,0,0-1.16,2.66C348.93,197.6,349.32,196.72,349.72,195.82ZM8.5,211A3.94,3.94,0,0,0,1,209.27c.14,1.38.29,2.74.45,4.1A3.94,3.94,0,0,0,8.5,211Zm5.24,0a3.88,3.88,0,1,0,3.88-3.88A3.88,3.88,0,0,0,13.74,211Zm17,3.87A3.88,3.88,0,1,0,26.81,211,3.87,3.87,0,0,0,30.69,214.83Zm13.06-7.68A3.81,3.81,0,1,0,47.56,211,3.81,3.81,0,0,0,43.75,207.15Zm13.07,0A3.77,3.77,0,1,0,60.59,211,3.77,3.77,0,0,0,56.82,207.19Zm13.07,0A3.73,3.73,0,1,0,73.62,211,3.73,3.73,0,0,0,69.89,207.23Zm13.06,0a3.7,3.7,0,1,0,3.7,3.7A3.7,3.7,0,0,0,83,207.26Zm13.07.07A3.63,3.63,0,1,0,99.64,211,3.63,3.63,0,0,0,96,207.33Zm13.07,0a3.59,3.59,0,1,0,3.58,3.59A3.59,3.59,0,0,0,109.09,207.37Zm13.06,0a3.55,3.55,0,1,0,3.56,3.55A3.55,3.55,0,0,0,122.15,207.41Zm13.07.07A3.48,3.48,0,1,0,138.7,211,3.48,3.48,0,0,0,135.22,207.48Zm13.07,0a3.45,3.45,0,1,0,3.44,3.45A3.45,3.45,0,0,0,148.29,207.51Zm13.07.08a3.37,3.37,0,1,0,3.37,3.37A3.37,3.37,0,0,0,161.36,207.59Zm13.06,0a3.34,3.34,0,1,0,3.34,3.34A3.34,3.34,0,0,0,174.42,207.62Zm13.07,6.6a3.26,3.26,0,1,0-3.26-3.26A3.26,3.26,0,0,0,187.49,214.22Zm13.07-.07a3.19,3.19,0,1,0-3.19-3.19A3.19,3.19,0,0,0,200.56,214.15Zm13.06,0a3.16,3.16,0,1,0-3.15-3.15A3.16,3.16,0,0,0,213.62,214.11Zm13.07-.07a3.08,3.08,0,1,0-3.08-3.08A3.08,3.08,0,0,0,226.69,214Zm13.07-.08a3,3,0,1,0-3-3A3,3,0,0,0,239.76,214Zm13.06,0a3,3,0,1,0-3-3A3,3,0,0,0,252.82,213.93Zm13.07-.11A2.87,2.87,0,1,0,263,211,2.86,2.86,0,0,0,265.89,213.82Zm13.07,0a2.83,2.83,0,1,0-2.83-2.82A2.83,2.83,0,0,0,279,213.78Zm13.07-.07a2.76,2.76,0,1,0-2.76-2.75A2.75,2.75,0,0,0,292,213.71Zm13.06-.07a2.68,2.68,0,1,0-2.68-2.68A2.68,2.68,0,0,0,305.09,213.64Zm13.07-.07a2.61,2.61,0,1,0-2.61-2.61A2.61,2.61,0,0,0,318.16,213.57Zm13.07-.08a2.54,2.54,0,1,0-2.54-2.53A2.53,2.53,0,0,0,331.23,213.49Zm12.2-.23c.4-1.55.86-3.11,1.37-4.71a2.16,2.16,0,0,0-.51-.06,2.46,2.46,0,0,0-.86,4.77ZM7,224a4.1,4.1,0,1,0,4.09-4.09A4.09,4.09,0,0,0,7,224Zm17.16,4.06A4.06,4.06,0,1,0,20.09,224,4.06,4.06,0,0,0,24.15,228.08ZM37.22,228A4,4,0,1,0,33.27,224,3.95,3.95,0,0,0,37.22,228Zm13.07,0A4,4,0,1,0,46.34,224,3.95,3.95,0,0,0,50.29,228Zm13.06,0a4,4,0,1,0-4-3.95A3.95,3.95,0,0,0,63.35,228Zm13.07-7.79A3.84,3.84,0,1,0,80.26,224,3.84,3.84,0,0,0,76.42,220.18Zm13.07,0A3.84,3.84,0,1,0,93.33,224,3.84,3.84,0,0,0,89.49,220.18Zm13.06.08a3.77,3.77,0,1,0,3.77,3.76A3.76,3.76,0,0,0,102.55,220.26Zm13.07,0a3.74,3.74,0,1,0,3.73,3.73A3.73,3.73,0,0,0,115.62,220.29Zm13.07,0a3.7,3.7,0,1,0,3.69,3.69A3.7,3.7,0,0,0,128.69,220.33Zm13.06.11a3.59,3.59,0,1,0,3.59,3.58A3.58,3.58,0,0,0,141.75,220.44Zm13.07.07a3.52,3.52,0,1,0,3.52,3.51A3.51,3.51,0,0,0,154.82,220.51Zm13.07.07a3.45,3.45,0,1,0,3.44,3.44A3.44,3.44,0,0,0,167.89,220.58Zm13.07,0A3.45,3.45,0,1,0,184.4,224,3.44,3.44,0,0,0,181,220.58Zm13.06,0a3.41,3.41,0,1,0,3.41,3.4A3.4,3.4,0,0,0,194,220.62Zm13.07,6.74a3.34,3.34,0,1,0-3.33-3.34A3.33,3.33,0,0,0,207.09,227.36Zm13.07-.07A3.27,3.27,0,1,0,216.9,224,3.26,3.26,0,0,0,220.16,227.29Zm13.06-.11a3.16,3.16,0,1,0-3.15-3.16A3.15,3.15,0,0,0,233.22,227.18Zm13.07-.08a3.08,3.08,0,1,0-3.08-3.08A3.07,3.07,0,0,0,246.29,227.1Zm13.07-.07a3,3,0,1,0-3-3A3,3,0,0,0,259.36,227Zm13.07,0a3,3,0,1,0-3-3A3,3,0,0,0,272.43,227Zm13.06-.07a2.94,2.94,0,1,0-2.93-2.94A2.94,2.94,0,0,0,285.49,227Zm13.07-.07A2.87,2.87,0,1,0,295.7,224,2.87,2.87,0,0,0,298.56,226.89Zm13.07-.08a2.79,2.79,0,1,0-2.79-2.79A2.78,2.78,0,0,0,311.63,226.81Zm13.06-.14a2.65,2.65,0,1,0-2.64-2.65A2.65,2.65,0,0,0,324.69,226.67Zm13.07-.07a2.58,2.58,0,1,0-2.57-2.58A2.58,2.58,0,0,0,337.76,226.6ZM4.55,233h0c.53,2.67,1.08,5.29,1.65,7.84A4.09,4.09,0,0,0,4.55,233Zm13.07,8.15a4.06,4.06,0,1,0-4.06-4.06A4.06,4.06,0,0,0,17.62,241.15Zm13.07,0a4,4,0,1,0-4-4A4,4,0,0,0,30.69,241.11ZM43.75,241a4,4,0,1,0-4-3.95A4,4,0,0,0,43.75,241Zm13.07,0a4,4,0,1,0-4-3.95A4,4,0,0,0,56.82,241Zm16.94-3.95A3.88,3.88,0,1,0,69.89,241,3.88,3.88,0,0,0,73.76,237.09Zm5.35,0A3.84,3.84,0,1,0,83,233.25,3.84,3.84,0,0,0,79.11,237.09ZM96,233.32a3.77,3.77,0,1,0,3.77,3.77A3.77,3.77,0,0,0,96,233.32Zm13.07,0a3.73,3.73,0,1,0,3.73,3.73A3.73,3.73,0,0,0,109.09,233.36Zm13.06,0a3.7,3.7,0,1,0,3.7,3.69A3.69,3.69,0,0,0,122.15,233.4Zm13.07.07a3.62,3.62,0,1,0,3.62,3.62A3.62,3.62,0,0,0,135.22,233.47Zm13.07,0a3.59,3.59,0,1,0,3.59,3.59A3.59,3.59,0,0,0,148.29,233.5Zm13.07.08a3.52,3.52,0,1,0,3.51,3.51A3.51,3.51,0,0,0,161.36,233.58Zm13.06.07a3.44,3.44,0,1,0,3.44,3.44A3.44,3.44,0,0,0,174.42,233.65Zm13.07,0a3.41,3.41,0,1,0,3.41,3.4A3.41,3.41,0,0,0,187.49,233.69Zm13.07.07a3.33,3.33,0,1,0,3.33,3.33A3.34,3.34,0,0,0,200.56,233.76Zm13.06.07a3.26,3.26,0,1,0,3.26,3.26A3.26,3.26,0,0,0,213.62,233.83Zm13.07,6.45a3.19,3.19,0,1,0-3.19-3.19A3.19,3.19,0,0,0,226.69,240.28Zm13.07,0a3.15,3.15,0,1,0-3.15-3.15A3.15,3.15,0,0,0,239.76,240.24Zm13.06-.07a3.08,3.08,0,1,0-3.08-3.08A3.07,3.07,0,0,0,252.82,240.17Zm13.07-.07a3,3,0,1,0-3-3A3,3,0,0,0,265.89,240.1ZM279,240a2.94,2.94,0,1,0-2.94-2.94A2.94,2.94,0,0,0,279,240ZM292,240a2.86,2.86,0,1,0-2.87-2.86A2.86,2.86,0,0,0,292,240Zm13.06-.07a2.79,2.79,0,1,0-2.79-2.79A2.79,2.79,0,0,0,305.09,239.88Zm13.07-.07a2.72,2.72,0,1,0-2.72-2.72A2.72,2.72,0,0,0,318.16,239.81Zm13.07-.07a2.65,2.65,0,1,0-2.65-2.65A2.65,2.65,0,0,0,331.23,239.74Zm-316,10.42a4.16,4.16,0,0,0-7.47-2.52c.54,2.17,1.09,4.29,1.63,6.33a4.11,4.11,0,0,0,1.67.36A4.17,4.17,0,0,0,15.25,250.16Zm8.9,4.13A4.13,4.13,0,1,0,20,250.16,4.13,4.13,0,0,0,24.15,254.29Zm13.07-.11a4,4,0,1,0-4-4A4,4,0,0,0,37.22,254.18Zm13.07,0a4,4,0,1,0-4-4A4,4,0,0,0,50.29,254.18Zm13.06,0a4,4,0,1,0-4-4A4,4,0,0,0,63.35,254.18Zm13.07-.11a3.92,3.92,0,1,0-3.91-3.91A3.91,3.91,0,0,0,76.42,254.07Zm13.07-7.83a3.92,3.92,0,1,0,3.91,3.92A3.93,3.93,0,0,0,89.49,246.24Zm13.06,0a3.88,3.88,0,1,0,3.88,3.88A3.88,3.88,0,0,0,102.55,246.28Zm13.07.07a3.81,3.81,0,1,0,3.81,3.81A3.81,3.81,0,0,0,115.62,246.35Zm13.07,0a3.77,3.77,0,1,0,3.77,3.77A3.77,3.77,0,0,0,128.69,246.39Zm13.06.14a3.63,3.63,0,1,0,3.63,3.63A3.63,3.63,0,0,0,141.75,246.53Zm13.07,0a3.59,3.59,0,1,0,3.59,3.59A3.59,3.59,0,0,0,154.82,246.57Zm13.07.07a3.52,3.52,0,1,0,3.51,3.52A3.53,3.53,0,0,0,167.89,246.64Zm13.07,0a3.52,3.52,0,1,0,3.51,3.52A3.52,3.52,0,0,0,181,246.64Zm13.06.08a3.44,3.44,0,1,0,3.45,3.44A3.44,3.44,0,0,0,194,246.72Zm13.07,0a3.41,3.41,0,1,0,3.41,3.41A3.41,3.41,0,0,0,207.09,246.75Zm13.07.07a3.34,3.34,0,1,0,3.33,3.34A3.35,3.35,0,0,0,220.16,246.82Zm13.06,6.53a3.19,3.19,0,1,0-3.18-3.19A3.19,3.19,0,0,0,233.22,253.35Zm13.07,0a3.15,3.15,0,1,0-3.15-3.15A3.15,3.15,0,0,0,246.29,253.31Zm13.07-.07a3.08,3.08,0,1,0-3.08-3.08A3.08,3.08,0,0,0,259.36,253.24Zm13.07,0a3.08,3.08,0,1,0-3.08-3.08A3.08,3.08,0,0,0,272.43,253.24Zm13.06-.11a3,3,0,1,0-3-3A3,3,0,0,0,285.49,253.13Zm13.07,0a2.94,2.94,0,1,0-2.94-2.93A2.93,2.93,0,0,0,298.56,253.09Zm13.07-.07a2.86,2.86,0,1,0-2.87-2.86A2.86,2.86,0,0,0,311.63,253Zm13.06-.18a2.68,2.68,0,1,0-2.68-2.68A2.69,2.69,0,0,0,324.69,252.84Zm13.07-.07a2.61,2.61,0,1,0-2.61-2.61A2.61,2.61,0,0,0,337.76,252.77ZM21.89,263.23a4.28,4.28,0,1,0-4.27,4.27A4.27,4.27,0,0,0,21.89,263.23Zm8.8,4.23a4.24,4.24,0,1,0-4.24-4.23A4.23,4.23,0,0,0,30.69,267.46Zm13.06,0a4.21,4.21,0,1,0-4.2-4.2A4.21,4.21,0,0,0,43.75,267.43Zm13.07-.07a4.14,4.14,0,1,0-4.13-4.13A4.13,4.13,0,0,0,56.82,267.36ZM74,263.23a4.1,4.1,0,1,0-4.09,4.09A4.09,4.09,0,0,0,74,263.23Zm9,4a4,4,0,1,0-4-4A4,4,0,0,0,83,267.25Zm17.06-4a4,4,0,1,0-4,4A4,4,0,0,0,100,263.23Zm5.13,0a4,4,0,1,0,4-4A3.94,3.94,0,0,0,105.14,263.23Zm17-3.88a3.88,3.88,0,1,0,3.88,3.88A3.87,3.87,0,0,0,122.15,259.35Zm13.07,0a3.85,3.85,0,1,0,3.84,3.85A3.84,3.84,0,0,0,135.22,259.38Zm13.07.08a3.77,3.77,0,1,0,3.77,3.77A3.77,3.77,0,0,0,148.29,259.46Zm13.07.07a3.7,3.7,0,1,0,3.69,3.7A3.69,3.69,0,0,0,161.36,259.53Zm13.06.07a3.63,3.63,0,1,0,3.63,3.63A3.62,3.62,0,0,0,174.42,259.6Zm13.07,0a3.59,3.59,0,1,0,3.59,3.59A3.59,3.59,0,0,0,187.49,259.64Zm13.07.07a3.52,3.52,0,1,0,3.51,3.52A3.52,3.52,0,0,0,200.56,259.71Zm13.06.07a3.45,3.45,0,1,0,3.45,3.45A3.44,3.44,0,0,0,213.62,259.78Zm13.07.08a3.37,3.37,0,1,0,3.37,3.37A3.37,3.37,0,0,0,226.69,259.86Zm13.07,6.66a3.3,3.3,0,1,0-3.3-3.29A3.29,3.29,0,0,0,239.76,266.52Zm13.06,0a3.27,3.27,0,1,0-3.26-3.26A3.26,3.26,0,0,0,252.82,266.49Zm13.07-.11a3.16,3.16,0,1,0-3.15-3.15A3.15,3.15,0,0,0,265.89,266.38Zm13.07-.07a3.08,3.08,0,1,0-3.08-3.08A3.08,3.08,0,0,0,279,266.31Zm13.07,0a3,3,0,1,0-3-3A3,3,0,0,0,292,266.27Zm13.06-.07a3,3,0,1,0-3-3A3,3,0,0,0,305.09,266.2Zm13.07-.11a2.87,2.87,0,1,0-2.86-2.86A2.86,2.86,0,0,0,318.16,266.09Zm13.07-.07a2.79,2.79,0,1,0-2.79-2.79A2.79,2.79,0,0,0,331.23,266Zm13.06-.08a2.71,2.71,0,0,0,2.32-1.31q-.67-2-1.32-3.93a2.74,2.74,0,0,0-1-.19,2.72,2.72,0,0,0,0,5.43ZM28.54,276.29a4.39,4.39,0,1,0-4.39,4.39A4.39,4.39,0,0,0,28.54,276.29Zm8.68,4.28a4.28,4.28,0,1,0-4.28-4.28A4.28,4.28,0,0,0,37.22,280.57Zm13.07,0A4.28,4.28,0,1,0,46,276.29,4.28,4.28,0,0,0,50.29,280.57Zm13.06-.07a4.21,4.21,0,1,0-4.2-4.21A4.22,4.22,0,0,0,63.35,280.5Zm13.07-.08a4.13,4.13,0,1,0-4.13-4.13A4.13,4.13,0,0,0,76.42,280.42Zm13.07,0a4.13,4.13,0,1,0-4.13-4.13A4.13,4.13,0,0,0,89.49,280.42Zm13.06-.07a4.06,4.06,0,1,0-4-4.06A4.06,4.06,0,0,0,102.55,280.35Zm17.09-4.06a4,4,0,1,0-4,4A4,4,0,0,0,119.64,276.29Zm9-4a3.95,3.95,0,1,0,3.95,4A4,4,0,0,0,128.69,272.34Zm13.06.11a3.84,3.84,0,1,0,3.85,3.84A3.84,3.84,0,0,0,141.75,272.45Zm13.07,7.61a3.77,3.77,0,1,0-3.77-3.77A3.77,3.77,0,0,0,154.82,280.06Zm13.07-7.46a3.7,3.7,0,1,0,3.69,3.69A3.7,3.7,0,0,0,167.89,272.6Zm13.07,0a3.7,3.7,0,1,0,3.69,3.69A3.69,3.69,0,0,0,181,272.6Zm13.06.07a3.63,3.63,0,1,0,3.63,3.62A3.62,3.62,0,0,0,194,272.67Zm13.07,0a3.59,3.59,0,1,0,3.59,3.58A3.58,3.58,0,0,0,207.09,272.71Zm13.07.07a3.52,3.52,0,1,0,3.51,3.51A3.52,3.52,0,0,0,220.16,272.78Zm13.06.14a3.37,3.37,0,1,0,3.37,3.37A3.37,3.37,0,0,0,233.22,272.92Zm13.07.07a3.3,3.3,0,1,0,3.3,3.3A3.3,3.3,0,0,0,246.29,273Zm13.07,6.53a3.23,3.23,0,1,0-3.23-3.23A3.23,3.23,0,0,0,259.36,279.52Zm13.07,0a3.23,3.23,0,1,0-3.23-3.23A3.23,3.23,0,0,0,272.43,279.52Zm13.06-.08a3.15,3.15,0,1,0-3.15-3.15A3.15,3.15,0,0,0,285.49,279.44Zm13.07-.07a3.08,3.08,0,1,0-3.08-3.08A3.08,3.08,0,0,0,298.56,279.37Zm13.07-.07a3,3,0,1,0-3-3A3,3,0,0,0,311.63,279.3Zm13.06-.15a2.86,2.86,0,1,0-2.86-2.86A2.87,2.87,0,0,0,324.69,279.15Zm13.07-.07a2.79,2.79,0,1,0-2.79-2.79A2.79,2.79,0,0,0,337.76,279.08Zm13.07-.11a2.66,2.66,0,0,0,.94-.18q-.88-2.51-1.82-5a2.67,2.67,0,0,0,.88,5.2ZM19.67,285.51l.43,1.06,1.83,3.49a4.05,4.05,0,0,0,.07-.7A4.36,4.36,0,0,0,19.67,285.51ZM35,289.36a4.32,4.32,0,1,0-4.31,4.31A4.31,4.31,0,0,0,35,289.36Zm8.75,4.27a4.28,4.28,0,1,0-4.27-4.27A4.28,4.28,0,0,0,43.75,293.63Zm13.07-.07a4.2,4.2,0,1,0-4.2-4.2A4.2,4.2,0,0,0,56.82,293.56Zm17.23-4.2a4.17,4.17,0,1,0-4.16,4.17A4.17,4.17,0,0,0,74.05,289.36Zm8.9,4.13a4.13,4.13,0,1,0-4.13-4.13A4.13,4.13,0,0,0,83,293.49Zm17.13-4.13A4.06,4.06,0,1,0,96,293.42,4.06,4.06,0,0,0,100.08,289.36Zm9,4a4,4,0,1,0-4-4A4,4,0,0,0,109.09,293.38Zm13.06-.07a3.95,3.95,0,1,0-4-3.95A3.95,3.95,0,0,0,122.15,293.31Zm16.95-3.95a3.88,3.88,0,1,0-3.88,3.88A3.88,3.88,0,0,0,139.1,289.36Zm13,0a3.84,3.84,0,1,0-3.84,3.84A3.84,3.84,0,0,0,152.13,289.36Zm13,0a3.77,3.77,0,1,0-3.76,3.77A3.76,3.76,0,0,0,165.12,289.36Zm9.3,3.7a3.7,3.7,0,1,0-3.69-3.7A3.7,3.7,0,0,0,174.42,293.06Zm13.07-7.32a3.62,3.62,0,1,0,3.62,3.62A3.62,3.62,0,0,0,187.49,285.74Zm13.07,0a3.59,3.59,0,1,0,3.58,3.59A3.59,3.59,0,0,0,200.56,285.77Zm13.06.07a3.52,3.52,0,1,0,3.52,3.52A3.52,3.52,0,0,0,213.62,285.84Zm13.07.08a3.44,3.44,0,1,0,3.44,3.44A3.44,3.44,0,0,0,226.69,285.92Zm13.07.07a3.37,3.37,0,1,0,3.37,3.37A3.37,3.37,0,0,0,239.76,286Zm13.06.07a3.3,3.3,0,1,0,3.3,3.3A3.29,3.29,0,0,0,252.82,286.06Zm13.07,6.52a3.23,3.23,0,1,0-3.22-3.22A3.23,3.23,0,0,0,265.89,292.58Zm13.07-.07a3.15,3.15,0,1,0-3.15-3.15A3.15,3.15,0,0,0,279,292.51Zm13.07-.07a3.08,3.08,0,1,0-3.08-3.08A3.08,3.08,0,0,0,292,292.44Zm13.06-.07a3,3,0,1,0-3-3A3,3,0,0,0,305.09,292.37Zm13.07-.08a2.94,2.94,0,1,0-2.93-2.93A2.94,2.94,0,0,0,318.16,292.29Zm13.07-.07a2.86,2.86,0,1,0-2.87-2.86A2.86,2.86,0,0,0,331.23,292.22Zm13.06-.07a2.79,2.79,0,1,0-2.79-2.79A2.78,2.78,0,0,0,344.29,292.15Zm10.56-3.7a2.72,2.72,0,0,0-.17.91,2.65,2.65,0,0,0,.92,2C355.37,290.39,355.11,289.41,354.85,288.45ZM26.65,298.69c.65,1.16,1.31,2.31,2,3.45A4.53,4.53,0,0,0,26.65,298.69Zm15,3.74a4.42,4.42,0,1,0-4.42,4.42A4.42,4.42,0,0,0,41.64,302.43Zm8.65,4.42a4.42,4.42,0,1,0-4.43-4.42A4.42,4.42,0,0,0,50.29,306.85Zm13.06,0A4.39,4.39,0,1,0,59,302.43,4.39,4.39,0,0,0,63.35,306.81Zm13.07-.14a4.24,4.24,0,1,0-4.24-4.24A4.24,4.24,0,0,0,76.42,306.67Zm13.07,0a4.24,4.24,0,1,0-4.24-4.24A4.24,4.24,0,0,0,89.49,306.67Zm13.06,0a4.21,4.21,0,1,0-4.2-4.2A4.2,4.2,0,0,0,102.55,306.63Zm17.2-4.2a4.13,4.13,0,1,0-4.13,4.13A4.13,4.13,0,0,0,119.75,302.43Zm8.94,4.05a4.06,4.06,0,1,0-4.06-4.05A4.05,4.05,0,0,0,128.69,306.48Zm13.06-.1a4,4,0,1,0-3.94-3.95A3.95,3.95,0,0,0,141.75,306.38Zm13.07-.08a3.88,3.88,0,1,0-3.88-3.87A3.88,3.88,0,0,0,154.82,306.3Zm13.07-.07a3.81,3.81,0,1,0-3.81-3.8A3.8,3.8,0,0,0,167.89,306.23Zm16.87-3.8a3.81,3.81,0,1,0-3.8,3.8A3.81,3.81,0,0,0,184.76,302.43Zm9.26,3.73a3.74,3.74,0,1,0-3.73-3.73A3.74,3.74,0,0,0,194,306.16Zm13.07-7.43a3.7,3.7,0,1,0,3.7,3.7A3.7,3.7,0,0,0,207.09,298.73Zm13.07.11a3.59,3.59,0,1,0,3.58,3.59A3.59,3.59,0,0,0,220.16,298.84Zm13.06.11a3.48,3.48,0,1,0,3.48,3.48A3.47,3.47,0,0,0,233.22,299Zm13.07.07a3.41,3.41,0,1,0,3.41,3.41A3.41,3.41,0,0,0,246.29,299Zm13.07.07a3.34,3.34,0,1,0,3.33,3.34A3.35,3.35,0,0,0,259.36,299.09Zm13.07,0a3.34,3.34,0,1,0,3.33,3.34A3.34,3.34,0,0,0,272.43,299.09Zm13.06,6.6a3.26,3.26,0,1,0-3.26-3.26A3.26,3.26,0,0,0,285.49,305.69Zm13.07-.11a3.16,3.16,0,1,0-3.15-3.15A3.15,3.15,0,0,0,298.56,305.58Zm13.07-.07a3.08,3.08,0,1,0-3.08-3.08A3.08,3.08,0,0,0,311.63,305.51Zm13.06-.15a2.94,2.94,0,1,0-2.93-2.93A2.94,2.94,0,0,0,324.69,305.36Zm13.07-.07a2.87,2.87,0,1,0-2.86-2.86A2.86,2.86,0,0,0,337.76,305.29Zm13.07-5.65a2.79,2.79,0,1,0,2.79,2.79A2.79,2.79,0,0,0,350.83,299.64ZM48.21,315.49A4.46,4.46,0,1,0,43.75,320,4.46,4.46,0,0,0,48.21,315.49Zm8.61,4.42a4.42,4.42,0,1,0-4.42-4.42A4.42,4.42,0,0,0,56.82,319.91Zm17.45-4.42a4.39,4.39,0,1,0-4.38,4.39A4.38,4.38,0,0,0,74.27,315.49ZM83,319.81a4.32,4.32,0,1,0-4.31-4.32A4.33,4.33,0,0,0,83,319.81Zm17.31-4.32A4.24,4.24,0,1,0,96,319.73,4.24,4.24,0,0,0,100.26,315.49Zm8.83,4.21a4.21,4.21,0,1,0-4.21-4.21A4.21,4.21,0,0,0,109.09,319.7Zm13.06-.08a4.13,4.13,0,1,0-4.13-4.13A4.13,4.13,0,0,0,122.15,319.62Zm17.13-4.13a4.06,4.06,0,1,0-4.06,4.06A4.05,4.05,0,0,0,139.28,315.49Zm13,0a4,4,0,1,0-4,4A4,4,0,0,0,152.31,315.49Zm13,0a3.95,3.95,0,1,0-3.95,3.95A4,4,0,0,0,165.31,315.49Zm9.11,3.88a3.88,3.88,0,1,0-3.87-3.88A3.88,3.88,0,0,0,174.42,319.37Zm13.07-.07a3.81,3.81,0,1,0-3.8-3.81A3.81,3.81,0,0,0,187.49,319.3Zm13.07-.07a3.74,3.74,0,1,0-3.74-3.74A3.74,3.74,0,0,0,200.56,319.23Zm13.06-.08a3.66,3.66,0,1,0-3.66-3.66A3.66,3.66,0,0,0,213.62,319.15Zm13.07-.07a3.59,3.59,0,1,0-3.59-3.59A3.59,3.59,0,0,0,226.69,319.08Zm13.07-7.1a3.52,3.52,0,1,0,3.51,3.51A3.52,3.52,0,0,0,239.76,312Zm13.06.07a3.45,3.45,0,1,0,3.45,3.44A3.44,3.44,0,0,0,252.82,312.05Zm13.07.07a3.37,3.37,0,1,0,3.37,3.37A3.37,3.37,0,0,0,265.89,312.12Zm13.07.08a3.3,3.3,0,1,0,3.3,3.29A3.29,3.29,0,0,0,279,312.2ZM292,318.72a3.23,3.23,0,1,0-3.23-3.23A3.23,3.23,0,0,0,292,318.72Zm13.06-.07a3.16,3.16,0,1,0-3.15-3.16A3.17,3.17,0,0,0,305.09,318.65Zm13.07-.08a3.08,3.08,0,1,0-3.08-3.08A3.08,3.08,0,0,0,318.16,318.57Zm13.07-.11a3,3,0,1,0-3-3A3,3,0,0,0,331.23,318.46Zm13.06-5.87a2.9,2.9,0,1,0,2.9,2.9A2.89,2.89,0,0,0,344.29,312.59Zm10.24,2.9A2.81,2.81,0,0,0,356,318q.59-2.69.9-5.26A2.83,2.83,0,0,0,354.53,315.49ZM54.74,328.56a4.46,4.46,0,1,0-8.91,0,4.36,4.36,0,0,0,.05.52c.85,1.19,1.69,2.36,2.54,3.52a4.44,4.44,0,0,0,6.32-4ZM63.35,333a4.42,4.42,0,1,0-4.42-4.42A4.42,4.42,0,0,0,63.35,333Zm13.07-.11a4.31,4.31,0,1,0-4.31-4.31A4.31,4.31,0,0,0,76.42,332.87Zm13.07,0a4.31,4.31,0,1,0-4.32-4.31A4.31,4.31,0,0,0,89.49,332.87Zm13.06-.07a4.24,4.24,0,1,0-4.24-4.24A4.24,4.24,0,0,0,102.55,332.8Zm17.27-4.24a4.2,4.2,0,1,0-4.2,4.2A4.2,4.2,0,0,0,119.82,328.56Zm8.87,4.13a4.13,4.13,0,1,0-4.13-4.13A4.13,4.13,0,0,0,128.69,332.69Zm13.06-.11a4,4,0,1,0-4-4A4,4,0,0,0,141.75,332.58Zm13.07-.07a3.95,3.95,0,1,0-3.95-3.95A4,4,0,0,0,154.82,332.51Zm13.07-.07a3.88,3.88,0,1,0-3.88-3.88A3.88,3.88,0,0,0,167.89,332.44Zm16.94-3.88a3.88,3.88,0,1,0-3.87,3.88A3.88,3.88,0,0,0,184.83,328.56Zm13,0a3.81,3.81,0,1,0-3.81,3.81A3.81,3.81,0,0,0,197.83,328.56Zm9.26,3.73a3.73,3.73,0,1,0-3.73-3.73A3.73,3.73,0,0,0,207.09,332.29Zm13.07-.07a3.66,3.66,0,1,0-3.66-3.66A3.66,3.66,0,0,0,220.16,332.22Zm13.06-.14a3.52,3.52,0,1,0-3.51-3.52A3.52,3.52,0,0,0,233.22,332.08Zm13.07-.08a3.44,3.44,0,1,0-3.44-3.44A3.44,3.44,0,0,0,246.29,332Zm13.07-.07a3.37,3.37,0,1,0-3.37-3.37A3.37,3.37,0,0,0,259.36,331.93Zm13.07-6.74a3.37,3.37,0,1,0,3.37,3.37A3.37,3.37,0,0,0,272.43,325.19Zm13.06.07a3.3,3.3,0,1,0,3.3,3.3A3.29,3.29,0,0,0,285.49,325.26Zm13.07,6.53a3.23,3.23,0,1,0-3.23-3.23A3.23,3.23,0,0,0,298.56,331.79Zm13.07-.08a3.15,3.15,0,1,0-3.16-3.15A3.15,3.15,0,0,0,311.63,331.71Zm13.06-.18a3,3,0,1,0-3-3A3,3,0,0,0,324.69,331.53Zm13.07-5.87a2.9,2.9,0,1,0,2.9,2.9A2.9,2.9,0,0,0,337.76,325.66Zm13.07.07a2.83,2.83,0,0,0,0,5.66,3,3,0,0,0,.79-.13c.61-1.38,1.16-2.74,1.66-4.08A2.8,2.8,0,0,0,350.83,325.73Zm-294,11.4a4.49,4.49,0,0,0-3.6,1.83q2.7,3.46,5.43,6.76a4.49,4.49,0,0,0-1.83-8.59Zm17.52,4.5a4.46,4.46,0,1,0-4.45,4.45A4.46,4.46,0,0,0,74.34,341.63ZM83,346a4.39,4.39,0,1,0-4.38-4.38A4.39,4.39,0,0,0,83,346Zm17.38-4.38A4.31,4.31,0,1,0,96,345.94,4.31,4.31,0,0,0,100.33,341.63Zm8.76,4.24a4.24,4.24,0,1,0-4.24-4.24A4.24,4.24,0,0,0,109.09,345.87Zm13.06,0a4.21,4.21,0,1,0-4.2-4.2A4.2,4.2,0,0,0,122.15,345.83Zm17.2-4.2a4.13,4.13,0,1,0-4.13,4.13A4.13,4.13,0,0,0,139.35,341.63Zm13,0a4.06,4.06,0,1,0-4.06,4.06A4.06,4.06,0,0,0,152.35,341.63Zm13,0a4,4,0,1,0-4,4A4,4,0,0,0,165.34,341.63Zm9.08,3.91a3.92,3.92,0,1,0-3.91-3.91A3.92,3.92,0,0,0,174.42,345.54Zm13.07,0a3.88,3.88,0,1,0-3.88-3.87A3.88,3.88,0,0,0,187.49,345.5Zm13.07-.1a3.77,3.77,0,1,0-3.77-3.77A3.76,3.76,0,0,0,200.56,345.4Zm13.06-.08a3.7,3.7,0,1,0-3.69-3.69A3.7,3.7,0,0,0,213.62,345.32Zm13.07-.07a3.63,3.63,0,1,0-3.62-3.62A3.62,3.62,0,0,0,226.69,345.25Zm13.07-.07a3.55,3.55,0,1,0-3.55-3.55A3.55,3.55,0,0,0,239.76,345.18Zm13.06-.07a3.48,3.48,0,1,0-3.47-3.48A3.48,3.48,0,0,0,252.82,345.11Zm13.07-.08a3.41,3.41,0,1,0-3.4-3.4A3.41,3.41,0,0,0,265.89,345ZM279,345a3.34,3.34,0,1,0-3.33-3.33A3.33,3.33,0,0,0,279,345ZM292,338.37a3.26,3.26,0,1,0,3.26,3.26A3.26,3.26,0,0,0,292,338.37Zm13.06,6.45a3.19,3.19,0,1,0-3.19-3.19A3.19,3.19,0,0,0,305.09,344.82Zm13.07-.08a3.12,3.12,0,1,0-3.12-3.11A3.12,3.12,0,0,0,318.16,344.74Zm13.07-6.12a3,3,0,1,0,3,3A3,3,0,0,0,331.23,338.62Zm13.06.07a2.94,2.94,0,0,0,0,5.87h.17c.88-1.4,1.72-2.79,2.5-4.14A3,3,0,0,0,344.29,338.69ZM63.35,350.09a4.73,4.73,0,0,0-.93.1q2.63,3,5.28,5.93a4.47,4.47,0,0,0,.25-1.43A4.6,4.6,0,0,0,63.35,350.09Zm17.56,4.6a4.49,4.49,0,1,0-4.49,4.5A4.49,4.49,0,0,0,80.91,354.69Zm8.58,4.5a4.5,4.5,0,1,0-4.5-4.5A4.49,4.49,0,0,0,89.49,359.19Zm13.06,0a4.46,4.46,0,1,0-4.45-4.46A4.45,4.45,0,0,0,102.55,359.15ZM120,354.69a4.39,4.39,0,1,0-4.39,4.39A4.39,4.39,0,0,0,120,354.69Zm8.68,4.28a4.28,4.28,0,1,0-4.28-4.28A4.27,4.27,0,0,0,128.69,359Zm13.06-.11a4.17,4.17,0,1,0-4.16-4.17A4.16,4.16,0,0,0,141.75,358.86Zm13.07-.07a4.1,4.1,0,1,0-4.09-4.1A4.1,4.1,0,0,0,154.82,358.79Zm13.07-.07a4,4,0,1,0-4-4A4,4,0,0,0,167.89,358.72Zm17.09-4a4,4,0,1,0-4,4A4,4,0,0,0,185,354.69Zm13,0a4,4,0,1,0-3.95,3.95A4,4,0,0,0,198,354.69Zm13,0a3.88,3.88,0,1,0-3.88,3.88A3.88,3.88,0,0,0,211,354.69Zm9.19,3.81a3.81,3.81,0,1,0-3.81-3.81A3.8,3.8,0,0,0,220.16,358.5Zm13.06-.15a3.66,3.66,0,1,0-3.66-3.66A3.65,3.65,0,0,0,233.22,358.35Zm13.07-.07a3.59,3.59,0,1,0-3.59-3.59A3.59,3.59,0,0,0,246.29,358.28Zm13.07-.07a3.52,3.52,0,1,0-3.52-3.52A3.51,3.51,0,0,0,259.36,358.21Zm13.07,0a3.52,3.52,0,1,0-3.52-3.52A3.51,3.51,0,0,0,272.43,358.21Zm13.06-.07a3.45,3.45,0,1,0-3.44-3.45A3.44,3.44,0,0,0,285.49,358.14Zm13.07-.11a3.34,3.34,0,1,0-3.33-3.34A3.33,3.33,0,0,0,298.56,358Zm13.07-6.6a3.27,3.27,0,1,0,3.26,3.26A3.26,3.26,0,0,0,311.63,351.43Zm13.06.18a3.08,3.08,0,1,0,3.08,3.08A3.08,3.08,0,0,0,324.69,351.61Zm10.06,3.08a3,3,0,0,0,1,2.22q1.89-2.43,3.58-4.77a2.94,2.94,0,0,0-1.56-.45A3,3,0,0,0,334.75,354.69ZM83,363.23a4.51,4.51,0,0,0-4.46,3.92c1.79,1.73,3.6,3.4,5.42,5a4.53,4.53,0,0,0-1-9Zm17.56,4.53A4.49,4.49,0,1,0,96,372.25,4.49,4.49,0,0,0,100.51,367.76Zm8.58,4.42a4.42,4.42,0,1,0-4.42-4.42A4.42,4.42,0,0,0,109.09,372.18Zm13.06-.07a4.35,4.35,0,1,0-4.34-4.35A4.35,4.35,0,0,0,122.15,372.11Zm17.35-4.35a4.28,4.28,0,1,0-4.28,4.28A4.28,4.28,0,0,0,139.5,367.76Zm13,0a4.2,4.2,0,1,0-4.2,4.2A4.2,4.2,0,0,0,152.49,367.76Zm13,0a4.14,4.14,0,1,0-4.13,4.13A4.13,4.13,0,0,0,165.49,367.76Zm8.93,4.06a4.06,4.06,0,1,0-4.06-4.06A4.06,4.06,0,0,0,174.42,371.82Zm13.07-.07a4,4,0,1,0-4-4A4,4,0,0,0,187.49,371.75Zm13.07-.08a3.91,3.91,0,1,0-3.92-3.91A3.91,3.91,0,0,0,200.56,371.67Zm13.06-.07a3.84,3.84,0,1,0-3.84-3.84A3.83,3.83,0,0,0,213.62,371.6Zm13.07-.07a3.77,3.77,0,1,0-3.77-3.77A3.77,3.77,0,0,0,226.69,371.53Zm13.07-.07a3.7,3.7,0,1,0-3.7-3.7A3.7,3.7,0,0,0,239.76,371.46Zm13.06-.11a3.59,3.59,0,1,0-3.58-3.59A3.59,3.59,0,0,0,252.82,371.35Zm13.07-.07a3.52,3.52,0,1,0-3.51-3.52A3.53,3.53,0,0,0,265.89,371.28ZM279,371.2a3.44,3.44,0,1,0-3.44-3.44A3.44,3.44,0,0,0,279,371.2Zm13.07-.07a3.37,3.37,0,1,0-3.37-3.37A3.37,3.37,0,0,0,292,371.13Zm13.06-6.67a3.3,3.3,0,1,0,3.3,3.3A3.29,3.29,0,0,0,305.09,364.46Zm13.07.08a3.23,3.23,0,1,0,3.23,3.22A3.22,3.22,0,0,0,318.16,364.54ZM89.49,376.3a4.15,4.15,0,0,0-.79.08c1.76,1.49,3.53,2.95,5.31,4.36A4.52,4.52,0,0,0,89.49,376.3Zm13.06,0a4.49,4.49,0,1,0,4.5,4.49A4.49,4.49,0,0,0,102.55,376.34ZM120,380.83a4.42,4.42,0,1,0-4.42,4.42A4.42,4.42,0,0,0,120,380.83Zm8.65,4.35a4.35,4.35,0,1,0-4.35-4.35A4.35,4.35,0,0,0,128.69,385.18Zm13.06-.15a4.2,4.2,0,1,0-4.2-4.2A4.2,4.2,0,0,0,141.75,385Zm13.07-.07a4.13,4.13,0,1,0-4.13-4.13A4.13,4.13,0,0,0,154.82,385Zm13.07-.07a4.06,4.06,0,1,0-4.06-4.06A4.06,4.06,0,0,0,167.89,384.89ZM185,380.83a4.06,4.06,0,1,0-4,4.06A4.05,4.05,0,0,0,185,380.83Zm13,0a4,4,0,1,0-4,4A4,4,0,0,0,198,380.83Zm13,0a3.91,3.91,0,1,0-3.91,3.91A3.91,3.91,0,0,0,211,380.83Zm13,0a3.84,3.84,0,1,0-3.84,3.84A3.84,3.84,0,0,0,224,380.83Zm9.22,3.69a3.7,3.7,0,1,0-3.69-3.69A3.69,3.69,0,0,0,233.22,384.52Zm13.07-.1a3.59,3.59,0,1,0-3.59-3.59A3.59,3.59,0,0,0,246.29,384.42Zm13.07-.08a3.52,3.52,0,1,0-3.52-3.51A3.51,3.51,0,0,0,259.36,384.34Zm13.07,0a3.52,3.52,0,1,0-3.52-3.51A3.51,3.51,0,0,0,272.43,384.34Zm13.06-6.95a3.44,3.44,0,1,0,3.44,3.44A3.44,3.44,0,0,0,285.49,377.39Zm13.07.07a3.37,3.37,0,1,0,3.37,3.37A3.37,3.37,0,0,0,298.56,377.46Zm13.07.07a3.29,3.29,0,0,0-2,5.89c1.67-1.34,3.32-2.71,4.93-4.11A3.29,3.29,0,0,0,311.63,377.53ZM109.09,389.37a4.58,4.58,0,0,0-2.4.69q3.42,2.32,6.86,4.45a4.07,4.07,0,0,0,.07-.61A4.53,4.53,0,0,0,109.09,389.37Zm13.06.07a4.46,4.46,0,1,0,4.46,4.46A4.45,4.45,0,0,0,122.15,389.44Zm17.46,4.46a4.39,4.39,0,1,0-4.39,4.38A4.39,4.39,0,0,0,139.61,393.9Zm13,0a4.31,4.31,0,1,0-4.31,4.31A4.31,4.31,0,0,0,152.6,393.9Zm13,0a4.24,4.24,0,1,0-4.23,4.24A4.23,4.23,0,0,0,165.59,393.9Zm8.83,4.16a4.17,4.17,0,1,0-4.16-4.16A4.17,4.17,0,0,0,174.42,398.06Zm13.07-.07a4.1,4.1,0,1,0-4.09-4.09A4.09,4.09,0,0,0,187.49,398Zm13.07-.07a4,4,0,1,0-4-4A4,4,0,0,0,200.56,397.92Zm13.06-.07a4,4,0,1,0-4-4A4,4,0,0,0,213.62,397.85Zm13.07-.11a3.85,3.85,0,1,0-3.84-3.84A3.84,3.84,0,0,0,226.69,397.74Zm13.07-7.61a3.77,3.77,0,1,0,3.77,3.77A3.77,3.77,0,0,0,239.76,390.13Zm13.06.07a3.7,3.7,0,1,0,3.7,3.7A3.69,3.69,0,0,0,252.82,390.2Zm13.07.11a3.59,3.59,0,1,0,3.59,3.59A3.59,3.59,0,0,0,265.89,390.31Zm13.07.07a3.52,3.52,0,1,0,3.51,3.52A3.52,3.52,0,0,0,279,390.38Zm13.07.07a3.44,3.44,0,0,0-1.84,6.35q2.65-1.57,5.25-3.23A3.44,3.44,0,0,0,292,390.45Zm-163.34,12a4.42,4.42,0,0,0-.74.07c1.55.78,3.1,1.54,4.65,2.26A4.47,4.47,0,0,0,128.69,402.47Zm13.06.14a4.35,4.35,0,0,0-4.34,4.34c2.49,1.07,5,2.07,7.48,3a4.3,4.3,0,0,0,1.21-3A4.35,4.35,0,0,0,141.75,402.61Zm13.07.08A4.28,4.28,0,1,0,159.1,407,4.27,4.27,0,0,0,154.82,402.69Zm13.07.07a4.21,4.21,0,1,0,4.2,4.2A4.2,4.2,0,0,0,167.89,402.76Zm17.27,4.2a4.21,4.21,0,1,0-4.2,4.21A4.2,4.2,0,0,0,185.16,407Zm13,0a4.13,4.13,0,1,0-4.13,4.13A4.13,4.13,0,0,0,198.15,407Zm13,0a4,4,0,1,0-4,4A4,4,0,0,0,211.11,407Zm13,0a3.95,3.95,0,1,0-4,4A4,4,0,0,0,224.11,407Zm9.11-3.8A3.81,3.81,0,1,0,237,407,3.8,3.8,0,0,0,233.22,403.16Zm13.07.07A3.73,3.73,0,1,0,250,407,3.73,3.73,0,0,0,246.29,403.23Zm13.07.11A3.63,3.63,0,1,0,263,407,3.63,3.63,0,0,0,259.36,403.34ZM268.8,407a3.07,3.07,0,0,0,.06.53q3.21-1.35,6.36-2.81A3.61,3.61,0,0,0,268.8,407Zm-94.38,8.87a4.19,4.19,0,0,0-3.32,1.65q3.66.74,7.31,1.29A4.19,4.19,0,0,0,174.42,415.83Zm13.07.07a4.1,4.1,0,0,0-4.07,3.56q4.1.51,8.18.8c0-.08,0-.15,0-.23A4.13,4.13,0,0,0,187.49,415.9Zm13.07.11a4,4,0,0,0-4,4,3,3,0,0,0,.06.52q4,.17,7.92.14a3.51,3.51,0,0,0,.07-.66A4,4,0,0,0,200.56,416Zm13.06.07a4,4,0,0,0-4,3.95,3.31,3.31,0,0,0,.06.55q3.95-.15,7.84-.48V420A4,4,0,0,0,213.62,416.08Zm13.07.07a3.86,3.86,0,0,0-3.83,3.41q3.72-.44,7.41-1A3.88,3.88,0,0,0,226.69,416.15Zm10.47,1.11c1.27-.26,2.54-.53,3.8-.82a3.69,3.69,0,0,0-1.2-.21A3.77,3.77,0,0,0,237.16,417.26Z" fill="url(#a)"/></svg>