<?xml version="1.0" encoding="UTF-8" standalone="no"?><svg xmlns="http://www.w3.org/2000/svg" xmlns:xlink="http://www.w3.org/1999/xlink" data-name="Layer 1" fill="#000000" height="230.1" preserveAspectRatio="xMidYMid meet" version="1" viewBox="84.7 84.1 231.3 230.1" width="231.3" zoomAndPan="magnify"><g id="change1_1"><path d="M313.86,309.17c-.06,1.3.57.83.69,1C314.4,308,313.69,309.23,313.86,309.17Z" fill="#5e17eb"/></g><g id="change1_2"><path d="M312.43 287.69L312.69 288.07 312.06 284.9 312.43 287.69z" fill="#5e17eb"/></g><g id="change1_3"><path d="M312.44,267.59c-1.07,1.9.17,7.28-.21,10.86L312,279l.86,1.62C312.71,276.31,312.14,270.66,312.44,267.59Z" fill="#5e17eb"/></g><g id="change1_4"><path d="M314.76,256.88c-.42.66-.36-2.32-.13,2.5,0-.24.07-.31.11-.45C314.73,258.49,314.73,257.9,314.76,256.88Z" fill="#5e17eb"/></g><g id="change1_5"><path d="M314.73,258.93c0,2.12.35-1.38,0,0Z" fill="#5e17eb"/></g><g id="change1_6"><path d="M314.49,249.15l.37,2.79c.25-.58.3-3.06.48-2.14C315.14,246.94,314.9,247.53,314.49,249.15Z" fill="#5e17eb"/></g><g id="change1_7"><path d="M313.71,246.51l.16,1.44A2,2,0,0,0,313.71,246.51Z" fill="#5e17eb"/></g><g id="change1_8"><path d="M314.2,251l-.33-3.06c-.17.4-.52.45.12,1.41C313.67,249.11,314,249.72,314.2,251Z" fill="#5e17eb"/></g><g id="change1_9"><path d="M314,252.75c-.23,1.56-.38,3.58-.75.79C313.44,258.87,314.19,258.09,314,252.75Z" fill="#5e17eb"/></g><g id="change1_10"><path d="M311.33,266.57l-.31,2.09.36,1.81C311.2,269.56,311.67,266.44,311.33,266.57Z" fill="#5e17eb"/></g><g id="change1_11"><path d="M315,231.79c-.23-.17-.61.94-.9,1.15l.26,2.06C314.57,233.94,314.71,231.93,315,231.79Z" fill="#5e17eb"/></g><g id="change1_12"><path d="M314.15,232.94l-.39-3.08C313.71,232.61,313.9,233.11,314.15,232.94Z" fill="#5e17eb"/></g><g id="change1_13"><path d="M312.52 246.01L313.35 251.07 312.51 245.04 312.52 246.01z" fill="#5e17eb"/></g><g id="change1_14"><path d="M315.08 220.03L315.6 221.77 314.81 218.66 315.08 220.03z" fill="#5e17eb"/></g><g id="change1_15"><path d="M315,212.22c.44,1.29.74-1.77,1-.41a32.27,32.27,0,0,0-.79-5.56A22.71,22.71,0,0,1,315,212.22Z" fill="#5e17eb"/></g><g id="change1_16"><path d="M314.71,203.52c.1.86.29,1.76.49,2.74A18,18,0,0,0,314.71,203.52Z" fill="#5e17eb"/></g><g id="change1_17"><path d="M313.87,224.61a4.7,4.7,0,0,0,.65-2.42l-.64,1.21Z" fill="#5e17eb"/></g><g id="change1_18"><path d="M313.86,223.44l0,0,0-2.62Z" fill="#5e17eb"/></g><g id="change1_19"><path d="M313.87,224.91v-.31A.24.24,0,0,0,313.87,224.91Z" fill="#5e17eb"/></g><g id="change1_20"><path d="M313.1,237.94c-.36-1.81-.74-5.58-1.29-1.93C312.25,237.31,312.56,235.22,313.1,237.94Z" fill="#5e17eb"/></g><g id="change1_21"><path d="M313.07,226.42l-.15,3.27c.17-.06.42-.65.59.24Z" fill="#5e17eb"/></g><g id="change1_22"><path d="M312.86 224.82L313.07 226.42 313.12 225.21 312.86 224.82z" fill="#5e17eb"/></g><g id="change1_23"><path d="M314.11,209.13a28.71,28.71,0,0,1-.35-4.71c-.13,1.87-.19,3.81-.19,5.64C313.77,210.32,314.13,211.13,314.11,209.13Z" fill="#5e17eb"/></g><g id="change1_24"><path d="M313.93,216.08l0-.31C313.84,216,313.82,216.12,313.93,216.08Z" fill="#5e17eb"/></g><g id="change1_25"><path d="M313.77,187.23l-.12.28.11.06Z" fill="#5e17eb"/></g><g id="change1_26"><path d="M313.45,210.38a8.41,8.41,0,0,0,.23,3c-.06-1.05-.11-2.17-.11-3.36C313.48,209.95,313.42,209.93,313.45,210.38Z" fill="#5e17eb"/></g><g id="change1_27"><path d="M314.41,198.73c-.13.73-.25,1.56-.35,2.44A6.62,6.62,0,0,0,314.41,198.73Z" fill="#5e17eb"/></g><g id="change1_28"><path d="M314.07,215.29l0,.21C314.24,215,314.17,215.1,314.07,215.29Z" fill="#5e17eb"/></g><g id="change1_29"><path d="M314.07,215.29a15.38,15.38,0,0,0-.39-1.86c.05.86.12,1.65.21,2.34A2.55,2.55,0,0,1,314.07,215.29Z" fill="#5e17eb"/></g><g id="change1_30"><path d="M309.65,182c.59.25,1.14,3.95.51,7.14.45,3.14,2.4,1.09,3.49-1.66-.26-.1-.5-.1-.85-3.33-.32,1.13-.76,7.17-1.3,4.45-.31-4.28.21-3.51.52-5.59-.74,1.77-1.08-5.45-2.17-4.52l.38,3.76C310.08,182.34,309.81,181,309.65,182Z" fill="#5e17eb"/></g><g id="change1_31"><path d="M313.59,193.66l.07,1.33a26.55,26.55,0,0,1,.81-4.6c-.29-2.21-.51-2.67-.71-2.83l-.08,6.55Z" fill="#5e17eb"/></g><g id="change1_32"><path d="M313.67,201c-.65-1-.92-4.23-1.62-2.28,0,3.9.54,2.74.82,5.07-.16-6.3.36,1.81.73-2.74.11,1.24.14,2.35.17,3.4.08-1.13.18-2.23.3-3.26l0,.14v0h0c-.08.27-.13.36-.08.05a.83.83,0,0,1,0-.13.73.73,0,0,1-.24-.28c.13-1.82.17-.29.24.28,0,0,.06.07.1.08v0l-.35-6.31C313.57,196.33,313.59,198,313.67,201Z" fill="#5e17eb"/></g><g id="change1_33"><path d="M310.42,232.64c.06-.2.1-.19.15-.2C310.49,232,310.44,231.88,310.42,232.64Z" fill="#5e17eb"/></g><g id="change1_34"><path d="M310.81,230a6,6,0,0,1,.28,2.33c-.19,1.29-.31,0-.52.06.17.9.46,3.15.78.33l-.09-.45c.22-2.54,1-5.81,1.12-5.36A8.87,8.87,0,0,0,310.81,230Z" fill="#5e17eb"/></g><g id="change1_35"><path d="M312.08,215.33l-.32-5.26-.56,2.68.34-.14C311.4,215.6,311.82,215,312.08,215.33Z" fill="#5e17eb"/></g><g id="change1_36"><path d="M314.09 186.63L314.77 187.32 313.81 184.29 314.09 186.63z" fill="#5e17eb"/></g><g id="change1_37"><path d="M314.01 179.8L314.6 180.05 314.24 178.25 314.01 179.8z" fill="#5e17eb"/></g><g id="change1_38"><path d="M93.36,164.81l.17,1.54C93.47,165.63,93.42,165.16,93.36,164.81Z" fill="#5e17eb"/></g><g id="change1_39"><path d="M93.4,153.63l-.29-.27C93.27,153.87,93.39,154.09,93.4,153.63Z" fill="#5e17eb"/></g><g id="change1_40"><path d="M232.46,86.06c-2.25-.55-4.76-1.41-4.49-.75l.69.65A17.68,17.68,0,0,1,232.46,86.06Z" fill="#5e17eb"/></g><g id="change1_41"><path d="M117.58,89.95l.66.2,1.52-.62Z" fill="#5e17eb"/></g><g id="change1_42"><path d="M116,92.64l-3-.42A26.85,26.85,0,0,0,116,92.64Z" fill="#5e17eb"/></g><g id="change1_43"><path d="M94,225.88l.66,1.8C94.71,224.86,94.37,226.1,94,225.88Z" fill="#5e17eb"/></g><g id="change1_44"><path d="M313.77,109.84a44.7,44.7,0,0,0,.39-4.84C313.79,107.34,313.23,109.23,313.77,109.84Z" fill="#5e17eb"/></g><g id="change1_45"><path d="M86.45,160.41c.12.94.25,1.35.4,1.32C86.74,160.76,86.61,160.21,86.45,160.41Z" fill="#5e17eb"/></g><g id="change1_46"><path d="M314.16,99.39c-.07.34-.1.68-.15,1a43.33,43.33,0,0,1,.16,4.58A14.48,14.48,0,0,0,314.16,99.39Z" fill="#5e17eb"/></g><g id="change1_47"><path d="M226.93,306.49c.16,0,.36,0,.5.08S227.25,306.48,226.93,306.49Z" fill="#5e17eb"/></g><g id="change1_48"><path d="M291.45,313.06c-.64,0-1.67,0-2.65,0A18.57,18.57,0,0,0,291.45,313.06Z" fill="#5e17eb"/></g><g id="change1_49"><path d="M314.29,152.32c0,1.45.07.23,0,0Z" fill="#5e17eb"/></g><g id="change1_50"><path d="M311.72,159.36c-.07-.31-.17-.54-.32-.58A1,1,0,0,1,311.72,159.36Z" fill="#5e17eb"/></g><g id="change1_51"><path d="M305.36,89.89h-.12C305.63,90,305.56,90,305.36,89.89Z" fill="#5e17eb"/></g><g id="change1_52"><path d="M314,154.49c.08-.54.15-1.17.19-1.85C314.14,152.94,314.07,153.5,314,154.49Z" fill="#5e17eb"/></g><g id="change1_53"><path d="M314.3,154.2l-.06,1.27C314.35,155.65,314.42,155.49,314.3,154.2Z" fill="#5e17eb"/></g><g id="change1_54"><path d="M314.26,150.3c0,.83,0,1.6-.07,2.35,0-.28.08-.4.1-.33Z" fill="#5e17eb"/></g><g id="change1_55"><path d="M108.27,308.23l.31.06C110,308,109.4,308.07,108.27,308.23Z" fill="#5e17eb"/></g><g id="change1_56"><path d="M194.76,92.82l.17,0-.21,0Z" fill="#5e17eb"/></g><g id="change1_57"><path d="M189.56,93.3a9.82,9.82,0,0,1,5.15-.54L193,90.89Z" fill="#5e17eb"/></g><g id="change1_58"><path d="M93.55,191.58l.58-3.65c1,4.41.63,7.6,1.45,4.17-2-.52-.21-14.2-2.24-14.71l.43-2.41c0,.69.1.8.08,1.48,1-4.68-1.47-3.48-1.18-9.52.16-2.1.45-3.57.69-2.14l-.5-4.69c0-1.36.39-1,.35.33L93,153.3l.06.05c-.32-1-.81-3.33-1-4.46.29-1.82.22.91.47.45l-.49-4c.53-1.61,1,1.67,1,4.4,2-3.7-.51-3.28.68-11.26l.26,3.74c1.16-2.41.74-5.33,1.46-9.55-.38,1-1.82,8.46-2.32,4.16a16.37,16.37,0,0,0-.18-5.12c.72,0,.55-2.28.51-5.12l1,.19c-.28-3.06-.77-2.82-1.2-4.62.09-3.41.84-4.12,1.46-4.92.15-5.46-1.19,3.77-1.37-2.69.37-4.54,0-7.73-.6-13.17.33-3.18.59.56.86-.58L92.76,98c0-.69.25-.47.37-.35-.15-1.19-.39-1.24-.62-1.46a1.23,1.23,0,0,1-.34-.62,3.74,3.74,0,0,1-.26-1.18c-.46-.41-.22-1.51.09-2.4,1,.2,1.93.43,2.71.53l.58,0h.28l.53,0a10.47,10.47,0,0,0,2-.3c1.14.27-.55.59-.2,1a87.16,87.16,0,0,0,10.64-1.63l4.44.63c-3.26-.72.9-1.57,4.55-2.27-1.16-.35-2.14-.65-2.81-.8l5.82-.51c.7.16.12.49-.84.89l1.07-.23c2.08.35,1,.91-.49,1.44l-2.1-.59c-1.44.58-2.78,1.23-2.48,1.79a10.63,10.63,0,0,1,1.91-.26c-.38.16-.62.3-.44.4a5.06,5.06,0,0,0,1.76-.36l1.32,1.07.32-.42,7.62.67c5.45-1.08,10.19-2.66,18.84-3.1-2.15.78-.46,1.28-.58,2.21-2.36-1-6.7.42-11.18.22,2.34.1,1.82.55,1.23.7l8-.9c-.18.76,1.7.57,3.79.88-1.58-1.5,6-1,9.21-1.46.2.5-.58,1-4.55.9,4.38,1.13,5.66-1.76,10-.8-1,0-1.49-.07-1.87.19,2.26-.45,7.8-.09,6.49.35h-1c6.43.18,19.58,0,20.54-1.26a4.92,4.92,0,0,1-1.23,1.8l11.48-4.29c-1,1.1,2.87,3.71-2.46,4.32a26.93,26.93,0,0,0,6.66,0c-1-.16-2.6-1.58-1.18-1.68,3.92,1.22,2.72.65,7.55,1.69-1.57-.24.17-2,2.65-1.9-.39.26.21,1.7-.7,1.88L216.07,91c-1.54.3-.27,1.43,1.11,1.91-.64-.33,5.33,0,7-.14l-2.61-.39c7,.25,6.87-2.37,13.77-2.28-.84.35-2.06,2.14,1.45,2.36,1.61-.86,7.12-4.16,13.23-4.82l1.17.49,4.68-.56a126.12,126.12,0,0,1-15.57,5.1c2.6.39.72.58,4.62.54,1.38.46-2.12.7-3.27.73l9.08.3c-.4-1,6.94-1,6.59-1.85l-9.86,1c-.4-1,5.7-2.86,12.13-2.68,1.64.4-1.22,1.8-1.09,2.13a26.07,26.07,0,0,1,6.69-.42l-2.73.54c3.58.38,5.84-1.34,10.14-.37,1.48.06,4.43,1.3,4.69.7-2.42-1.15-2.9-4.71-1.28-5.57.52.08,7.8,1.1,9.49,1.67,2.45.9-3.67,2.15-1.59,2.93.09-.28,1.44-.62,2-.72,1.56.24-.65.85,2.74.73.57-1,6.89.09,1.6-.86,3.31-.29,3.52.21,7.41.17-1.24-.66,3.49-2.25,6.82-2.54-.2.26.58.6.89.75,1.77,0,3.28.07,4.61.14l-.28,5.53c-.09,1.89-.15,3.86-.15,6.19-.25.58-.55,3.64-1,2.34a14.6,14.6,0,0,1,.55,3.7c-.88,3.78-.14-4.36-1.2-1.47.59.25.82,5.05,1.19,7.84.92-.86.18-6.43-.19-9.22,1.27,0,2.59,4.84,3.18,11.46.31,5.26-.82,2.28-.64,3.2-.22,9.89,2.21,8.42,1.3,16.63-.81,3.26-1.6.15-2.19.87-.31-4.29.51-6.58.48-9.49l-.38,3.58a22,22,0,0,1-.24-5.78c-.72,2.73-.14,16.7-.81,24.33.27,1.35.55,3.69.87,2.59l-.11-2.41c.65-2.22.9,4.54,1.2,1.49a47.54,47.54,0,0,1,.81,11.42l-.92.86c.27-.1.55-3,.27-4.26.41,1.9-1.24,7,0,9.07l.64-3.19c.46,3.25,1.44,7.27,1.15,11.31.91-1.84-.1-.93,1-3.8-1.32,2.49.06-10.33-1.33-6.33,1.23-2.94.52-5.1,1.57-8.95-.3.12-.58,1.36-.43-2a4.41,4.41,0,0,1-.27-.74l0-.23,0,.19c0-.15-.05-.16,0,.07a5.83,5.83,0,0,1-.46,1.73c-.7-1.68-.67-7.07-1-8.9.14-2,.35.84.67-.26l-.54-2.72c.67-.27,1.12-5.34,1.51-.61l0-4.27a33.74,33.74,0,0,0,.24-8.1c.15-2-.75-5.08-.22-3.33l-.42-6.69.17-.06c.08-6.6-1.12-13.59.1-21.13a73.58,73.58,0,0,1-.19-10.36l.58-1.59c0-.8,0-1.76,0-2.84-2.53,0-5.53-.15-8.22-.21l-1.84,0h-1a3.62,3.62,0,0,0-1.28.22c-3.08-1.57-13.85-.34-18.86-.62l-.19.76c-3.45,0-6.77.17-11.05.48l.26.67c-3.7.55-9.5-.48-15.35-.41a6.71,6.71,0,0,1,2.93,0c-7-1.52-14.74,1.11-21.07,0a11.76,11.76,0,0,1-3.83,0,2.26,2.26,0,0,0,.39,0h-.65c-.7-.12-1.41-.25-2.19-.36a15.06,15.06,0,0,0,1.84.36c-1.22,0-3.06.1-4.87.27l-.77-.72-.42,0c-1.78-.27-1.43.34-.48.89a19.26,19.26,0,0,0-2.39.44c-1.44-1.17-4.75.39-6.72-.85-1.22.61-9.1.46-10.06,1.73-.06-.17-.6-.25.38-.26a22.51,22.51,0,0,0-5.84.07l-.86-.92-4.41,1.23c-2.68-.56-3.79-.88-1.13-1.59-6.42,1.09-5.21.41-10.66,1.49l.27-.59c-2,0-5.07.82-6.25.33-4.36-1.13-21.59-.16-32.79-1.2,2.17,1.75-5.21-.78-5.65.57-.65-.41-2.21-.65-.4-1-5.72.41-8.59-.66-12.54.49-.65-.42,1.22-.61.64-.85a5.73,5.73,0,0,1-2.41.11c-.58-.25.84-.35,1.74-.53-5.84.07-6.43,1.34-6.86,2.54-3-.57-4.44-.49-6.57.3-1-.39-2.75-.8.88-.94-2-.06-12.47-.57-12.68.39a10.86,10.86,0,0,0-3.39,0l-4.87-.08c-1.67,0-3.34,0-6.34,0l1.78.16a3.54,3.54,0,0,1-2.09.59c0,.84,0,1.68-.11,2.72s-.13,2.28-.09,3.75l-.12-.14L88,97.58c0,.68-.07,1.21-.08,1.64A12.89,12.89,0,0,0,88,101c.09.88.16,1.75-.32,5.85l.72-.45c1.55.76-.91,7.27-.32,12l.41-1.72c.53,2.6-2.1,7.27-2.3,9.88-.13.57-.22-.9-.32-1.69-.91,6.84.94.89,1.16,6-.51.94-1.29-1.21-1.39,2.22-.41,1.71,1.65,9.95.68,14.62.39-1,.78-2.05,1.08.31.14,3.63-1.48,9.8-.25,13.08-.11.46-.21.64-.31.65.32,2.77.53,9,1.2,10.68C85.56,175,89.26,189.65,87,189.59l.12,8.53-.23-.22c-.15,5.45.4,7.38.95,9.29-.16,1.26-.37.34-.49.24-.46,8-.36,8.76.78,15.43l-.74.69c.43,1.81-1.17,11.51-.3,19.33-.08-.08-.23-.24-.33-.86.87,8.79-2.06,21,.65,24.26l.67,5.8c.21-7.5,1.17,1.12,1.62-2,.16,3-.82,7.63-1,4l.14-.57c-1.41-1.33-.5,9.32-1.46,9.12,0,4.68,0,9.32-.14,13.91l-.17,6.85-.18,9.7,10.71.18q3.86.07,7.66.1l-1.59-1.1,4.82.06c1.27.26,1.7.86-1.74.81,1.81.62,5.77-.52,5.87-.76,6.74.44-2.63,1.28-.57,1.31l2.81-.08-.63-.13c2.27-.45,2.48-.92,6.61-.87,2.62.22,1.34.68,2.37.72,0,.08.34.11,1.58,0l6.08.09-2.43-.87c2.69-.43,5.72,0,2.91-.94,4.12,1.51,22.67.54,25.2,1a65.77,65.77,0,0,1,12.11-.54c-1.15-.18-1.83-1.15,2.15-1-1.45,2,7.29.87,10.5,2.32-2.87-1,11.31-.24,6.8-1.6,3.32.16.2.75,2.72,1.23,7.9-.78,17.42.51,27.18.24.15-.26-1.48-.67.61-1.06l5.16,1.32c1.93-.13,1.78-1.52,5.3-.61-.5-.22-1.24-.56.05-.64,19.14,1.29,39.1-1.05,58.54,1.36-2.63-.51-.88-.56,1.13-.58-1.31-.12,0-.65-.23-1l8.14,1c1.48-1,8.72-.07,9.57-1l-2.58.17c3.43-1.12-4.79-2.49-4.29-3.93-3.84,1.27-10.12-1.89-16.41-.06-1.39-.29,1.19-.46.44-.8-1.6.62-3.52.74-7.09.47l.4-.15c-10,.15-14.33-.46-25.6-.86l.83.71a22.26,22.26,0,0,1-4.07-.5c-2.78,1.08,6.8.06,4.27,1.25-3.21-1.45-17.08,0-19.25-1.66-3.73,0,1.09.82-2.63.81l-1-.44-.94.57c-2.44-.09-3.67-.65-3.77-1,.59,0,1.68-.11,2.32-.14-3.17-.52-8.93.18-10,0l3.58.27c-10.17.42-22.58-.17-32.41.74l.75.34c-7.5.62-6-.37-14.24-.08l.3-.08a29.88,29.88,0,0,1-6.1.46c2.08-.39-3.91-.76-1.19-1.2-8.13.67-4,.52-9.4,1.77l-1.24-.56a17.12,17.12,0,0,1-6.1.91c3.37-.48-2.63-.85,1.15-1.48-8.63-1.22-12.82,1.23-16.78-.55-4,1.54,7.47.85,5.25,1.18,1.86.5-3.27,1.15-6,1s-4.69-2-11.62-1.94c.69,0,.74-.11,1.43-.1-2.6-.39-5.09.53-8.27-.11-1.78.93-4.13-.05-4.65,1.13l6.36-.27c-3.61.31-7,1.7-12.93,1a18.55,18.55,0,0,1,3.45-.73c-1.74-.35-3.35.23-5.15-.13.51-1.19,7.73-.26,11.6-1.16-1.86-.5-7.31.86-5.37-.43-2.79,1.64-6.83-.21-11.53,1l.31-.71-1.59.26-1,.12a2.56,2.56,0,0,1-.52,0l.33-.23.14-.12a.43.43,0,0,1,.21-.12l1.24-.46c-.31.06-.61.11-.92.15l-.45,0-.17,0a2.19,2.19,0,0,1-.66,0,2.73,2.73,0,0,1-.92-.38,1.71,1.71,0,0,0,.07-1.18,2.75,2.75,0,0,1-.21,1.32c0,.14-.25.35-.52.56s-.49.43-.06.61l-.69.1a5.86,5.86,0,0,1,0-2.34,2.62,2.62,0,0,1,.29-.7,1.05,1.05,0,0,0,.09-.15l.09-.27.19-.54c.52-1.45,1.08-3.17.92-8.21.1,1.43-.43,5.36-.76,3.13a35.62,35.62,0,0,1,.79-5.89c-.15-7-.73,1.07-1.17-1.9.87-2.38-.35-3.43-.63-6.49l.72,0c.46-8-1.51-2.11-.95-9.28l1,3-.26-3.74.82.77a34.64,34.64,0,0,1-.22-9.32c-.51.93-1.31-.52-1.34-4,.43-2.41.69,1.35.58-3.65a5.87,5.87,0,0,1,.35,4.54c.24.22.45,1.11.69,1.34.49-2.59.11-6.51.11-8.32a12.88,12.88,0,0,1-.17,2l-1-7.25c.27-1.14.49-.24.7.66-.08-1.47-.41-2.48-.47-4.64.59.56,1.2.42,1.47,3.48l-.65-6.9c.26-.46.7-3.54.92-2.65.35-3.83-1.14-9.39-.68-14.46a6.71,6.71,0,0,1-.31-1.87c.13-4.77.85-9,0-14.65L94.71,206c-.24-4.43-1.33,4.34-1.73-3-.34-5.22.9-1.95,1.19-3.78-.53-2.6-1.61-7.11-.76-11.9C93.62,188.86,93.47,190.1,93.55,191.58ZM93.08,137c.15,1.06.62,3.17.19,3.94C92.44,139.72,92.84,138.78,93.08,137Zm32.54-45.64a7.78,7.78,0,0,1-3.38-.15A16.34,16.34,0,0,1,125.62,91.34Zm188.08,45.1a.86.86,0,0,0,0-.11C313.95,134,313.84,134.8,313.7,136.44Zm-.31,4.9c.1.49.2.46.3.25a8.12,8.12,0,0,1-.14-2.7A4.3,4.3,0,0,0,313.39,141.34ZM123.74,313.1l-1-.19C124.94,312.71,124.34,312.89,123.74,313.1Z" fill="#5e17eb"/></g><g id="change1_59"><path d="M116.21,92.33a.75.75,0,0,1-.45-.39C115.34,92.05,115.33,92.2,116.21,92.33Z" fill="#5e17eb"/></g><g id="change1_60"><path d="M93.93,225.54v.17a.37.37,0,0,0,.13.17Z" fill="#5e17eb"/></g><g id="change1_61"><path d="M285.83,92.75a8.18,8.18,0,0,1-1.95-.37C283.83,92.55,284.29,92.7,285.83,92.75Z" fill="#5e17eb"/></g><g id="change1_62"><path d="M314.62,167.31l-.19-3.14a12.16,12.16,0,0,1-.24,2.83C314.36,166.93,314.61,166.33,314.62,167.31Z" fill="#5e17eb"/></g><g id="change1_63"><path d="M310.14,194.56c.09.46,0,1,.1,1.43l.34-.13C310.55,193.9,310.28,192.54,310.14,194.56Z" fill="#5e17eb"/></g><g id="change1_64"><path d="M312.21,170.22c-.61.25-.4,2.22-.29,4.42,0-.13,0-.26,0-.39C312.78,174.89,312.49,172.55,312.21,170.22Z" fill="#5e17eb"/></g><g id="change1_65"><path d="M311.94,175.14c0,.68,0,1.37,0,2C312.3,177.43,312,176.35,311.94,175.14Z" fill="#5e17eb"/></g><g id="change1_66"><path d="M313.79,147.55c-.16,1,.78.65.53,1.24C315.1,150,313.38,141.85,313.79,147.55Z" fill="#5e17eb"/></g><g id="change1_67"><path d="M310.21 172L310.96 171.21 310.35 169.97 310.21 172z" fill="#5e17eb"/></g><g id="change1_68"><path d="M310.76,154.63l-.21,3.51c.13-.05.2.39.26.94C310.83,156.92,311,154.55,310.76,154.63Z" fill="#5e17eb"/></g><g id="change1_69"><path d="M310.81,159.09a16.5,16.5,0,0,0,.12,2.83C310.92,161.31,310.9,160,310.81,159.09Z" fill="#5e17eb"/></g><g id="change1_70"><path d="M309.98 167.19L310.14 166.15 310.19 163.67 309.98 167.19z" fill="#5e17eb"/></g><g id="change1_71"><path d="M310.9,116.86l-.22-3.83c-.26-.39-.42.65-.31,2.08C310.56,116,310.66,117.45,310.9,116.86Z" fill="#5e17eb"/></g><g id="change1_72"><path d="M308.85,128.46a4.5,4.5,0,0,1,.57-1.69l-.93-.12Z" fill="#5e17eb"/></g><g id="change1_73"><path d="M308.63,117.27c-.26-.38-.74-5.57-.68-.7C308.2,117,308.42,120.8,308.63,117.27Z" fill="#5e17eb"/></g><g id="change1_74"><path d="M279.9 90.19L280.88 90.18 280.74 88.65 279.9 90.19z" fill="#5e17eb"/></g><g id="change1_75"><path d="M229,93.85c4.54.37,1.08-.94,5.19-.49,1.07-.36-3.36-.37-2.26-.68C229.15,93.06,227.71,92.84,229,93.85Z" fill="#5e17eb"/></g><g id="change1_76"><path d="M231.9,92.68c.44-.06.9-.13,1.4-.23A10,10,0,0,0,231.9,92.68Z" fill="#5e17eb"/></g><g id="change1_77"><path d="M302.15 313.88L305.07 314.2 303.19 313.68 302.15 313.88z" fill="#5e17eb"/></g><g id="change1_78"><path d="M307.76,312.74l.69,1,1.76-.88A7.45,7.45,0,0,1,307.76,312.74Z" fill="#5e17eb"/></g><g id="change1_79"><path d="M95,128.86l-.23-.22a6.16,6.16,0,0,0-.31,2.51Z" fill="#5e17eb"/></g><g id="change1_80"><path d="M94.31 168.49L94.33 167.81 93.45 169.09 94.31 168.49z" fill="#5e17eb"/></g><g id="change1_81"><path d="M95.43,201.76c0-1.36-.16-3-.12-4.32C95.47,200.4,94.34,202.12,95.43,201.76Z" fill="#5e17eb"/></g></svg>