<?xml version="1.0" encoding="UTF-8" standalone="no"?><svg xmlns="http://www.w3.org/2000/svg" xmlns:xlink="http://www.w3.org/1999/xlink" fill="#ffffff" height="61.2" preserveAspectRatio="xMidYMid meet" version="1" viewBox="0.0 -0.1 41.1 61.2" width="41.1" zoomAndPan="magnify"><g><g id="change1_1"><path d="M22.54,37.69c-7.37,3.18-7.04,7.93-7.07,17.89,0,.12,.03,.24,0,.35-.03,.1-.12,.18-.24,.34l-.87,.05c-.38-.61-.36-1.38-1.01-1.78v-6.99c-.62-2.29-1.39-8.89-6.63-9.22-1.63,.07-.97-1.75-.09-1.74h2.91c.8-.85,1.61-1.69,2.41-2.54,.84-3.29-.54-15.32,1.86-14.99,.12,.17,.24,.26,.24,.35,.01,2.81,0,9.86,0,12.62,.69,3.05,4.16,4.37,4.84,4.57,2.05,.14,2.96-.32,3.81-.32,.34,.68,.32,1.14-.16,1.39Zm-7.07,2.8c-.46-.87,.88-1.06,.66-2-.3-.89-1.45-1.26-2.02-2.39-.04-.31-.1-.87-.16-1.34-.23-.28-.51-.25-.54,.05-.09,.92-.61,1.67-1.06,2.37-.52,.8-.58,1.41-.13,2.19,.53,.94,.99,1.91,1.49,2.87,.59-.59,1.18-1.18,1.76-1.76Z"/><path d="M33.84,60.29c-.24,.27-.88,.82-1.15-.76,.11-4.27-1.19-6.99-3.87-8.64-.1-.07-.1-.27-.15-.41,.85-1.2,3.58,0,4.61-4.35,.36-.55,.63-2.44,.62-2.82-.02-1.34,0-2.68-.01-4.02,0-.23,1.34-1.62,1.42,1.47-.08,4.12,1.43,8.44,1.46,8.59,.01,.06,.1,.11,.24,.25h1.93c.26,.44,.44,1.2-.54,1.86-4.56,.24-4.56,6.22-4.57,8.82Zm-.69-7.43c.39-.39,.35-.32,.76-.69,.33-.29,.57-.64,1.11-.76,.46-.1,.8-.7,1.2-1.08-.83-.9-1.15-1.48-1.59-3.1-.56,.67-.62,1.62-1.33,2.22-.65,.56-.81,.73-1.4,1.32,.31,.8,.49,1.61,1.25,2.08Z"/><path d="M37.45,9.49c.31,0,2.71,.51,3.34,.51,.32,0-.06-.06,.18,.18v.8l-.61,.88c-.62,0-1.02,0-1.42,0-3.72,0-2.71,6.05-2.71,7.79,0,.16,.01,.32,0,.47,0,.06-.09,.12-.18,.24-.25,0-.23,.5-.63,.42l-.64-.68c0-1.44-.45-6.29-.45-7.07-.45-1.13-.52-1.39-1.43-1.68-.16,0-2.41-.07-2.41-.69,0-1.16,1.63-.27,3.13-.69,.65-.47,.42-.45,.73-.79V.17c.38-.26,.65-.23,.98,.11,.62,7.81,.62,8.16,2.11,9.2Zm-.81,1.93c.55-.06,.81,.04,1-.29-.57-.57-1.15-1.15-1.63-1.63-.81-.08-.62,.46-.8,.74-.21,.32-.54,.57-.93,.96,.37,.26,.74,.52,.94,.66,.12,.45-.07,.73,.27,.87,.43-.48,.87-.99,1.15-1.31Z"/><path d="M2.27,9.24c.02-.36-.02-.76,.59-.91,.83,.64,.3,1.89,.93,2.51,.49,.81,1.64,.65,1.96,1.52-.62,.8-1.72,.38-2.24,1.14,.02,.32-.12,.89-.32,1.3-.76-.35-.95-1.15-1.37-1.76-.46-.67-1.59-.54-1.81-1.47,.5-.76,1.48-.62,1.9-1.29,.3-.3,.34-.67,.36-1.06Zm.11,2.04q.07,.81,.96,1.22c.02-.87-.44-1-.96-1.22Z"/><path d="M21.74,24.66c-.11-.87,.73-1.11,1.11-1.65,.41-.57,.12-1.4,.71-1.92q.54,.68,.78,1.79c.29,.56,1.17,.03,1.43,.88-2.47,1.18-.79,2.97-1.73,2.97-1.33-1.47-.47-2.39-2.3-2.07Zm1.83-.33c.19-.03,.24-.14,.14-.3-.03-.05-.13-.13-.15-.12-.1,.06-.18,.14-.26,.22,.09,.07,.18,.13,.27,.2Z"/></g></g></svg>