<?xml version="1.0" encoding="UTF-8" standalone="no"?><svg xmlns="http://www.w3.org/2000/svg" xmlns:xlink="http://www.w3.org/1999/xlink" clip-rule="evenodd" fill="#000000" fill-rule="evenodd" height="40.5" preserveAspectRatio="xMidYMid meet" stroke-linejoin="round" stroke-miterlimit="2" version="1" viewBox="0.0 0.5 200.0 40.5" width="200" zoomAndPan="magnify"><g transform="translate(-234.585 -31.704)"><path d="M234.585 31.704H434.58500000000004V72.72H234.585z" fill="none"/><clipPath id="a"><path d="M234.585 31.704H434.58500000000004V72.72H234.585z"/></clipPath><g clip-path="url(#a)"><g id="change1_1"><path d="M242.453,46.97C231.955,57.404 233.024,85.079 239.46,99.04C244.248,109.425 257.087,112.333 266.969,114.317C302.02,121.356 338.082,120.784 373.611,120.256C427.71,119.453 481.791,117.628 535.891,116.92C561.234,116.588 586.582,116.956 611.927,117.135C622.537,117.21 633.721,118.843 644.045,115.269C661.821,109.115 665.653,87.189 667.118,70.914C667.784,63.513 669.438,53.291 662.391,47.897C651.54,39.591 636.776,39.615 623.983,38.402C583.424,34.556 583.642,34.312 542.716,33.117C510.794,32.185 461.271,31.223 429.332,31.972C408.206,32.467 387.105,33.717 365.998,34.728C344.918,35.739 326.012,33.272 304.919,33.981C283.646,34.696 253.363,36.126 242.453,46.97Z" fill="#7471ff" transform="matrix(.4617 0 0 .4617 126.864 17.77)"/></g></g></g></svg>