<?xml version="1.0" encoding="UTF-8" standalone="no"?><svg xmlns="http://www.w3.org/2000/svg" xmlns:xlink="http://www.w3.org/1999/xlink" fill="#ffffff" height="27.7" preserveAspectRatio="xMidYMid meet" version="1" viewBox="0.0 0.0 29.0 27.7" width="29" zoomAndPan="magnify"><g><g id="change1_1"><path d="M28.74,2.18l-.07-.08h-.11c-.38,.04-.71,.19-.97,.19-.19,0-.33-.05-.52-.32-.04-.16-.06-.32-.06-.5s.01-.37,.01-.57c0-.24-.02-.49-.12-.74L26.85,0h-.15c-.19,0-.37,.09-.45,.21-.09,.12-.11,.24-.14,.32-.14,.45-.28,.9-.41,1.35-.1,.34-.22,.62-.38,.83-.16,.21-.35,.34-.63,.42-.55,.14-1.07,.54-1.33,1.24l-.02,.06v.07c.1,.44,.34,.66,.52,.77,.28,.2,.56,.38,.83,.57,.76,.56,1.29,1.17,1.29,2.22,0,.17-.01,.35-.05,.55h0v.17c-.01,.12,0,.25,.08,.38,.07,.12,.21,.22,.37,.25h.07l.06-.02c.22-.1,.34-.29,.39-.47,.05-.18,.06-.35,.08-.51,.2-2.05,.7-3.91,1.84-5.4h0c.08-.1,.13-.23,.13-.37,0-.17-.08-.34-.21-.47Zm-2.13,.86c.23,.08,.47,.17,.72,.26-.36,.84-.7,1.67-.96,2.61-.38-.4-.71-.76-1.03-1.1,.11-.39,.3-.68,.53-.95,.22-.26,.49-.52,.73-.82Z"/><path d="M1.5,8.14c-.32-.56-1.12-.48-1.5-1.11,.21-.75,1.13-.61,1.52-1.13,.36-.48,.55-1.12,1.17-1.38,.15,.34,.24,.81,.21,1.07,.4,.63,1.31,.33,1.79,1-.29,.7-1.21,.54-1.64,1.17-.54,.48-.14,1.51-.84,2.01-.49-.14-.44-.47-.45-.76,0-.31-.03-.62-.26-.87Zm1.23-1.75q-.74,.31-.82,.96c.43-.16,.8-.25,.82-.96Z"/><path d="M10.02,27.57c-.55,.13-.98,.12-1.4-.05-.37-.34-.34-.78-.28-1.22,.28-2.03,.55-4.07,.83-6.1,.3-2.17-.55-3.26-2.78-3.53-.46-.06-.88-.07-1.07-.64,.12-.14,.23-.41,.4-.45,2.26-.5,3.19-2.2,3.71-4.19,.39-1.49,.47-3.04,.53-4.58,.03-.78-.03-1.63,.7-2.18,.52,.06,.62,.4,.61,.78-.04,1.76-.04,3.52-.16,5.28-.13,1.9,.67,3.24,2.25,4.19,.62,.38,1.27,.72,1.89,1.11,.36,.23,.77,.46,.55,1.06-.75,.5-1.36-.32-2.36-.22-1.5,.78-2.61,2.1-2.75,4.13-.11,1.54-.19,3.07-.3,4.61-.04,.65,.1,1.33-.37,2.01Zm-1.15-11.74c.59,.63,.59,1.45,1.43,1.96,.09-1.14,.96-1.68,1.47-2.43-.4-.58-.72-1.06-1.07-1.52-.13-.16-.33-.26-.54-.41-.69,.64-.77,1.55-1.29,2.41Z"/></g></g></svg>