<?xml version="1.0" encoding="UTF-8" standalone="no"?><svg xmlns="http://www.w3.org/2000/svg" xmlns:xlink="http://www.w3.org/1999/xlink" data-name="Magical Botanicals" fill="#4b5dff" height="679.2" preserveAspectRatio="xMidYMid meet" version="1" viewBox="20.2 26.1 643.2 679.2" width="643.2" zoomAndPan="magnify"><g data-name="43" id="change1_1"><path d="M148.53,393.38c-4.25-.36-8.5-.7-12.75-1.09-1.17-.11-2.78-2-3-3.39-.37-2.07,1.1-4.77,2.86-5.11a56.73,56.73,0,0,1,6.31-1c4.26-.33,8.53-.46,12.79-.74.41,0,1.16-.58,1.12-.78-.17-1-.22-2.45-.9-2.94-4.76-3.44-9.72-6.6-14.49-10a21.67,21.67,0,0,1-4.47-4.45c-.53-.69-.38-2-.22-3.06a3.88,3.88,0,0,1,3.27-3,10,10,0,0,1,6.21,1.08q9.28,4.79,18.5,9.74c1.23.66,2.21.7,2.65-.47a4.21,4.21,0,0,0,.26-2.91c-2.36-4.82-5-9.49-7.35-14.31a21.27,21.27,0,0,1-1.89-6.08,13,13,0,0,1,.58-4.63c.27-1.27,2.74-2.13,4-1.69,2.69.93,4.37,3,5.95,5.16,3.45,4.76,5,10.68,9.25,14.95a2,2,0,0,0,1.51.44,1.36,1.36,0,0,0,.92-.9c.33-2.62.66-5.26.82-7.9.24-3.73.21-7.49.55-11.21a4.39,4.39,0,0,1,2.89-3.51c1.7-.73,5-.21,5.85,1.29,1.07,1.79,2.27,3.75,2.53,5.75.55,4.24.48,8.56.73,12.84.15,2.66.4,5.32.68,8a2.82,2.82,0,0,0,.74,1.34c1-.36,2.24-.6,2.73-1.34,2.67-4,5.08-8.18,7.7-12.22s5.6-7.9,9.92-10.35a3.17,3.17,0,0,1,2.77-.15,3.69,3.69,0,0,1,1.2,2.79,22.36,22.36,0,0,1-1.16,6.26c-1.31,3.47-3,6.79-4.49,10.22-.14.32.21,1,.52,1.33s1,.66,1.19.53c3.73-2.11,7.36-4.41,11.13-6.43A11.86,11.86,0,0,1,233.7,354a6.2,6.2,0,0,1,2.72,1.47c1,.86.79,3.14-.31,4.33a44.89,44.89,0,0,1-5.6,5.68c-5.12,3.89-10.45,7.49-15.65,11.27-.35.26-.67,1.2-.49,1.44.55.74,1.28,1.72,2,1.83,2.65.36,5.33.43,8,.54,3.21.13,6.45,0,9.64.33a15,15,0,0,1,4.46,1.6c1.61.72,3,3.67,2.73,5.42s-2.64,4-4.46,4.09c-7,.24-13.92.35-20.88.66a18.49,18.49,0,0,0-4.59,1.19,1.46,1.46,0,0,0,0,1.26,15.52,15.52,0,0,0,3.13,3.46c6.69,4.47,13.51,8.74,20.19,13.22a33.28,33.28,0,0,1,4.72,4.26c1.34,1.32,1.41,4.27.27,6-1,1.44-4.32,2.76-5.72,2q-5-2.54-9.89-5.28c-5.13-2.88-10.21-5.86-15.34-8.74a1.71,1.71,0,0,0-1.33.19,1.85,1.85,0,0,0-.9,2.75c3,5.68,6.08,11.32,9.09,17a59.71,59.71,0,0,1,2.81,5.74,4.76,4.76,0,0,1,.25,3.14,12,12,0,0,1-2.45,3.88c-.75.81-3.59.25-4.47-.69a49.07,49.07,0,0,1-5.3-6c-2.36-3.57-4.29-7.42-6.52-11.08a23.77,23.77,0,0,0-3-3.69,2.08,2.08,0,0,0-1.47-.46,1.38,1.38,0,0,0-1.07.63c-1.57,4.14-.58,8.48-.93,12.73-.26,3.19-.51,6.39-.85,9.57-.2,1.77-2.79,3.54-4.81,3.46-1.32-.06-3.64-1.45-4-2.36a44.36,44.36,0,0,1-2.63-14.16c-.07-3.74-.25-7.49-.6-11.22-.07-.74-1.1-1.47-1.83-2-.18-.14-1.09.3-1.35.69-3,4.44-5.86,9-8.92,13.36a8.38,8.38,0,0,1-5.4,3.2c-1.15.24-3.7-1.67-3.43-2.68a82.35,82.35,0,0,1,2.62-9.22c1.35-3.47,3.2-6.74,4.76-10.12a2.1,2.1,0,0,0-.25-1.45c-.6-1.31-1.45-1.42-2.62-.7-5,3.11-10,6.24-15.11,9.17a35.5,35.5,0,0,1-5.94,2.31c-1,.34-3.64-.9-4.12-2a4.59,4.59,0,0,1,0-4.55,14.45,14.45,0,0,1,3.15-3.54c5.19-3.8,10.54-7.39,15.71-11.22a30,30,0,0,0,4.41-4.53,1.94,1.94,0,0,0,.08-1.56,1.53,1.53,0,0,0-1-.91c-4.24-.37-8.49-.66-12.74-1Z" fill="inherit"/><path d="M448.54,239.28c-2.91-1.9-6.2-1.19-9.37-1.42s-6.39-.39-9.54-.91a4.47,4.47,0,0,1-3.32-3.15c-.64-1.74-.25-3.63,1.1-4.22a18.36,18.36,0,0,1,4.39-1.7c7.43-1,14.88-1.81,22.31-2.73.49-.06,1.33-.53,1.32-.79,0-.9-.05-2.15-.62-2.63a42,42,0,0,0-5.28-3.61c-5.48-3.36-11-6.61-16.47-10a20.86,20.86,0,0,1-3.43-3.29c-1-1-1-2.95-.26-4.52,1-2,3.62-3.48,5.2-2.88a63.54,63.54,0,0,1,7.38,3c4.73,2.51,9.3,5.32,14,7.84.75.4,1.94,0,2.92-.05,1.3-.14,1.48-2.27.36-4.17-.82-1.38-1.65-2.76-2.5-4.12-1.43-2.27-3-4.48-4.28-6.81-1-1.86-1.84-3.86-2.72-5.82a4.66,4.66,0,0,1,1.72-5.59c1.49-1,4.32-.58,5.86,1.13q3.2,3.58,6.13,7.39c2.92,3.79,5,8.22,8.71,11.41a1.91,1.91,0,0,0,1.48.05c.44-.12,1-.44,1.16-.79a21.8,21.8,0,0,0,1.08-4.6c.35-4.25-.42-8.58,1-12.77a6.35,6.35,0,0,1,3.47-3c2-.39,4.74,1.24,5.24,2.76,1.55,4.69,1,9.56,1.27,14.35.13,2.11-.29,4.34,1.15,6.19a2.5,2.5,0,0,0,1.19.81,2,2,0,0,0,1.49-.07c3.59-2.56,5.28-6.66,7.91-10,2.3-2.94,4.34-6.11,6.81-8.9,1-1.08,2.72-1.6,4.22-2,2.51-.68,5.58,2.24,5.06,4.67a24.72,24.72,0,0,1-1.26,4.61c-1,2.45-2.34,4.79-3.44,7.21a1.54,1.54,0,0,0,1.45,2.24c3.15.23,6.32.1,9.47.36,2.28.18,3.24,3,2.06,4.95a15.12,15.12,0,0,1-4.33,4.64c-3.88,2.8-8.31,4.87-11.64,8.41a2.25,2.25,0,0,0,.57,2.67,8.1,8.1,0,0,0,3,1.05c5.35.32,10.72.31,16.05.83a15.46,15.46,0,0,1,5.82,2.36c.78.45,1.22,1.7,1.57,2.68s-1.47,3.48-2.58,3.69a45.23,45.23,0,0,1-6.3,1c-5.34.23-10.69.21-16,.35a2.59,2.59,0,0,0-1.39.64c.25.93.4,2.14,1.07,2.68a35,35,0,0,0,5.36,3.45c5.67,3,11.46,5.85,17.07,9a24.39,24.39,0,0,1,4.74,4.21c1.15,1.13,1.43,3.51.37,4.42s-2.78,2.41-3.92,2.19a60.28,60.28,0,0,1-10.69-3.29c-4.46-1.79-8.77-4-13.17-6a1.67,1.67,0,0,0-1.32.24,2,2,0,0,0-.67,2.78c3.29,5.52,6.81,10.91,9.94,16.52,1,1.78,1.12,4.06,1.5,6.14.25,1.36-1.13,3.54-2.39,3.7a5.68,5.68,0,0,1-3.07-.33c-3-1.44-5.07-3.92-6.91-6.56-4.3-6.14-8.43-12.39-12.77-18.51-.4-.58-1.75-.61-2.67-.64-.31,0-.85.74-.94,1.22a27.13,27.13,0,0,0-.68,4.72c-.09,4.29,0,8.58-.05,12.87a45.58,45.58,0,0,1-.36,6.41,20.17,20.17,0,0,1-1.48,4.55,4.64,4.64,0,0,1-3.56,2.85c-1.69.34-4.79-1.47-5.12-3.07a66.25,66.25,0,0,1-1.26-7.88c-.51-6.93-.83-13.87-1.28-20.79,0-.32-.6-.76-1-.84a2.05,2.05,0,0,0-1.54.17,16.3,16.3,0,0,0-3.38,3.3c-4,6.32-7.91,12.75-11.9,19.11-1.13,1.8-2.39,3.53-3.67,5.24-1.1,1.47-4.21,2-5.87,1.12-1.93-1-3.4-3.57-2.94-5.2a20.14,20.14,0,0,1,1.49-4.52c4-7,8-13.91,12.09-20.86a6.63,6.63,0,0,0,1.11-4.41c-.15-1.16-.28-1.64-1.14-1.17-2.79,1.55-5.62,3-8.32,4.73-3.17,2-6.11,4.35-9.33,6.24a7.45,7.45,0,0,1-6.24.3c-1.95-.66-3.16-3.76-2-5.33a32.72,32.72,0,0,1,4.06-4.85c3.6-3.2,7.4-6.16,11.07-9.27C448.29,240.46,448.34,239.79,448.54,239.28Z" fill="inherit"/><path d="M104.84,85.23c.72,1.32,1.09,3.15,2.17,3.81,6.86,4.18,13.92,8,20.8,12.18a24.55,24.55,0,0,1,4.65,4.31c1.28,1.33.52,4.91-1.25,5.55-1.46.54-3.19,1.15-4.61.84a36.92,36.92,0,0,1-7.47-2.77c-5.82-2.73-11.55-5.62-17.35-8.38-.23-.11-.87.41-1.18.76a2.08,2.08,0,0,0-.59,1.3c.47,3.32,2.65,5.79,4.36,8.47,2.29,3.61,4.95,7,7.07,10.7.68,1.19.43,3.13.14,4.63-.54,2.75-4.27,4.17-6.3,2.53a29.31,29.31,0,0,1-4.79-4.21c-3-3.74-5.76-7.72-8.67-11.57a41.79,41.79,0,0,0-4.1-4.89,6.08,6.08,0,0,0-2.93-1c-.13,0-.64.88-.67,1.37-.39,6.4-.66,12.8-1.09,19.19A9,9,0,0,1,79.47,135a6,6,0,0,1-4.3,1.24,5.62,5.62,0,0,1-3.27-3.13,20.54,20.54,0,0,1-.89-6.29c-.24-5.87-.34-11.75-.55-17.63,0-.48-.51-1.35-.73-1.34-.94.06-2.26.09-2.71.68-2.58,3.4-4.87,7-7.44,10.43a8.76,8.76,0,0,1-5.28,3.4c-2.06.45-4.58-1.58-4.22-3.45A30.6,30.6,0,0,1,54,108.47a48.68,48.68,0,0,0,2.68-5.76c.55-1.23.19-1.66-1-1.2a45.7,45.7,0,0,0-5.8,2.29c-3.78,2-7.38,4.36-11.15,6.41a24.24,24.24,0,0,1-4.52,1.51c-1,.31-3.85-.79-4.11-1.92-.34-1.46-.67-3.34,0-4.52a14,14,0,0,1,4.27-4.66C40,96.68,45.93,93,51.72,89.16a1.66,1.66,0,0,0,.6-1.41,1.71,1.71,0,0,0-1.21-1,70.22,70.22,0,0,0-7.9-.9c-5.36-.16-10.72,0-16.08-.21A10.28,10.28,0,0,1,22.72,84c-1.4-.82-2.54-2.3-2.12-4A7.57,7.57,0,0,1,23,76.21a8.41,8.41,0,0,1,4.41-1.6c8-.59,16-1,24-1.49.49,0,1.4-.52,1.37-.66-.17-1-.25-2.29-.9-3A32.4,32.4,0,0,0,47,65.42c-4-2.76-8.16-5.2-11.93-8.18-2-1.6-3.45-4-5-6.14a3.77,3.77,0,0,1,.27-4.42c1.23-1.39,2.87-1.31,4.45-1.1,4.38.56,7.93,3.09,11.75,5A2.14,2.14,0,0,0,49.4,50a1.58,1.58,0,0,0,.35-1.26c-1.2-3-2.55-5.88-3.71-8.87-.68-1.74,1.27-4.31,3.29-4.69,2.87-.52,5.58.17,7.25,2.36,2.92,3.81,5.29,8,8,12a19.72,19.72,0,0,0,3.31,3.34,1.88,1.88,0,0,0,1.51.36A1.72,1.72,0,0,0,70.29,52a49.75,49.75,0,0,0,1.06-6.27c.26-3.73.05-7.52.53-11.22.26-2,1.47-4,2.38-5.88.55-1.16,3.1-2.54,4-2.08a10.05,10.05,0,0,1,3.82,2.67,9.36,9.36,0,0,1,1.36,4.54c.35,4.8.46,9.61.71,14.41,0,.5.47,1.42.63,1.4,1-.12,2.33-.13,2.86-.76,2.07-2.43,3.75-5.19,5.8-7.63s4.35-4.68,6.61-6.94a3.42,3.42,0,0,1,4.31-.34,4.36,4.36,0,0,1,1.14,4.42,18.9,18.9,0,0,1-1.43,4.56c-1.91,3.83-4,7.58-6,11.36a5.44,5.44,0,0,0-.8,4.42c.4,1.3,2.42,1.06,5.61-.87s6.33-4,9.55-6c1.84-1.09,3.78-2,5.71-2.95,2.31-1.11,6.39-.1,7.14,1.71a6.8,6.8,0,0,1-2.19,7.23c-5.13,3.82-10.35,7.52-15.5,11.32-.35.26-.45.9-.56,1.39a1.65,1.65,0,0,0,1.63,2.24c4.24.31,8.5.48,12.75.77a48.58,48.58,0,0,1,7.94.84,9,9,0,0,1,3.81,2.68c1.48,1.51.73,4.8-1.1,5.47a16.93,16.93,0,0,1-4.53,1.4c-4.27.27-8.56.21-12.85.33C111.54,84.4,108.29,83.75,104.84,85.23Z" fill="inherit"/><path d="M571.06,653.46c-6.69,0-10.44,0-14.18,0a5,5,0,0,1-3-.8c-1.12-1-2.49-2.45-2.51-3.73a4.8,4.8,0,0,1,2.38-3.72,33.86,33.86,0,0,1,7.75-1.68c4.21-.64,8.57.5,12.71-1.1A2.48,2.48,0,0,0,576,640a2.05,2.05,0,0,0-.5-1.38,23.41,23.41,0,0,0-3.51-3.18c-4.9-3.27-9.94-6.33-14.78-9.67a7.6,7.6,0,0,1-2.84-3.76,5.88,5.88,0,0,1,.42-4.51,5.2,5.2,0,0,1,4-1.88,16.06,16.06,0,0,1,6,2.13c5.63,3.09,11.13,6.42,16.76,9.51.74.41,1.94.08,2.91,0,1.21-.16,1.5-2.49.5-4.21-2.14-3.71-4.4-7.35-6.44-11.11a23.76,23.76,0,0,1-1.51-4.52,4.57,4.57,0,0,1,6.27-4.84,7.81,7.81,0,0,1,2.71,1.61,24.69,24.69,0,0,1,3,3.76c2.38,3.56,4.67,7.18,7.06,10.73.26.38,1.21.76,1.39.61.7-.59,1.65-1.35,1.72-2.12.42-4.79.49-9.62,1-14.4a10.3,10.3,0,0,1,2-4.28c1.72-2.57,6.87-2.09,8.05.71a15.27,15.27,0,0,1,1.36,4.55c.36,4.79.46,9.6.72,14.4,0,.49.5,1.38.69,1.36.93-.09,2.27-.14,2.68-.74,2.12-3.07,4-6.33,6-9.47,1.15-1.79,2.41-3.52,3.7-5.21,1.18-1.53,4.39-2.37,5.81-1.54a4.63,4.63,0,0,1,2.21,5.45c-1.08,3-2.32,6-3.46,9-.56,1.48-1.11,3-1.53,4.5-.09.35.33.93.65,1.28s1,.79,1.18.67c3.35-1.67,6.61-3.51,10-5.15a30.74,30.74,0,0,1,6-2.22,4.88,4.88,0,0,1,2.92.79c1.31.67,1.75,2.76,1.34,4.24a11.73,11.73,0,0,1-4.65,6.36c-4.74,3.48-9.62,6.78-14.42,10.2-.38.27-.84,1.14-.72,1.3.54.68,1.24,1.62,2,1.7,3.18.34,6.4.47,9.6.57,4.29.13,8.58.07,12.85.3a19.72,19.72,0,0,1,4.62,1.22c1.73.56,3.62,3.39,3.37,5-.3,2-2.11,4.26-3.89,4.6a25.69,25.69,0,0,1-4.72.78c-5.36,0-10.71-.16-16.07-.13a22,22,0,0,0-4.65.8,1.74,1.74,0,0,0-1.18.9,1.83,1.83,0,0,0,.45,1.49,22.26,22.26,0,0,0,3.46,3.2c4.88,3.3,9.9,6.39,14.73,9.75a55.52,55.52,0,0,1,6,5.29,4.64,4.64,0,0,1,.73,5.82c-1,1.43-4.24,2.76-5.69,2.18a43.11,43.11,0,0,1-5.76-2.69c-6.44-3.8-12.15-8.8-19.13-11.74-2-.83.73-.26-1.26.55a1.47,1.47,0,0,0-.69,1.25c1.23,5.3,4.61,9.58,6.95,14.36,1.41,2.87,3.14,5.58,4.54,8.46a4.38,4.38,0,0,1,.28,3.11,12.63,12.63,0,0,1-2.49,3.87c-.88,1-3.31.67-4.38-.42a49.49,49.49,0,0,1-5.36-5.88c-2.75-3.93-5.13-8.11-7.74-12.13a2,2,0,0,0-2.86-.48,2.12,2.12,0,0,0-.84,1.27,30.16,30.16,0,0,0-.74,4.68c-.16,3.75-.06,7.51-.26,11.25a12.35,12.35,0,0,1-1.08,4.62,4.75,4.75,0,0,1-3.78,2.59c-1.77.22-4.73-1.62-5-3.22a78.53,78.53,0,0,1-1-7.92c-.28-5.87-.32-11.76-.58-17.63A1.89,1.89,0,0,0,599,674.4a4,4,0,0,0-2.6,1.4c-3.41,6.07-6.61,12.26-10,18.34a9.1,9.1,0,0,1-3.06,3.58,8.39,8.39,0,0,1-4.54.54c-1.07-.09-2.44-2.67-2.32-3.84a19.27,19.27,0,0,1,.65-4.72c1.15-3,2.64-5.84,4-8.75,2.2-4.71,2.3-6.52.59-7.17-2.41-.93-4,.63-5.71,1.62-2.32,1.31-4.41,3-7.2,3.38-1.07.13-3.58-.67-4.25-1.73a4.67,4.67,0,0,1-.66-4.52,10.43,10.43,0,0,1,2.71-3.85c3.36-2.65,7-4.94,10.4-7.53a40,40,0,0,0,4.55-4.38,1.94,1.94,0,0,0,.24-1.55,1.42,1.42,0,0,0-.94-.91C576.62,653.9,572.38,653.57,571.06,653.46Z" fill="inherit"/><path d="M490,538.45c5.45,0,8.67-.08,11.88,0a12.58,12.58,0,0,1,3.07.89c1.59.51,3.59,3.61,3.16,5.14a5.21,5.21,0,0,1-2.73,3.71,15.05,15.05,0,0,1-4.52,1.47c-3.2.3-6.43.17-9.64.36-3.75.21-7.48.54-11.21.9-1.41.14-2,.92-1.62,2,.15.5.24,1.15.6,1.43,2.52,2,5,3.91,7.67,5.73,4.4,3.06,8.94,5.91,13.27,9.05a12.87,12.87,0,0,1,4.51,6.5c.37,1.08-1,3.37-2.31,3.73a10.12,10.12,0,0,1-7.8-.82c-4.22-2.33-8.19-5.11-12.37-7.51-2.76-1.58-5.7-2.86-8.59-4.2a1.9,1.9,0,0,0-1.4.29c-1.14.62-1.61,1.65-1,2.66,3.51,6,7.2,11.91,10.58,18a13,13,0,0,1,1.6,6.09,5,5,0,0,1-2.26,3.84,5.36,5.36,0,0,1-4.49-.51c-3.65-2.4-5.89-6.17-8.34-9.69-2.14-3.06-4.26-6.13-6.6-9-.49-.61-1.88-.57-2.87-.65-.16,0-.56.91-.58,1.42-.17,4.81-.24,9.63-.44,14.44a42.7,42.7,0,0,1-.66,4.75c-.15,1.06-2.12,2.83-3.36,3.06a4.91,4.91,0,0,1-4.46-1,10.64,10.64,0,0,1-3.45-7c-.49-5.33-.61-10.69-1.06-16-.07-.76-1-1.52-1.75-2.09-.18-.15-1.1.24-1.38.61-2.32,2.95-4.48,6-6.88,8.91a13.1,13.1,0,0,1-3.71,3,5.62,5.62,0,0,1-3.06.45c-1.2-.09-2.36-2.46-2.28-3.74.35-5,3.68-8.84,5.31-13.34a2.45,2.45,0,0,0,0-1.58c-.54-1.33-1.4-1.51-2.52-.83-4.14,2.48-8.27,5-12.48,7.34a37.39,37.39,0,0,1-5.82,2.68,9,9,0,0,1-3.16.07c-2.14-.08-3.63-2.83-2.79-4.66a15.69,15.69,0,0,1,5.07-6.13c4.74-3.52,9.64-6.81,14.46-10.2,1.19-.84,3.15-1.69,2.24-3.31-.64-1.16-2.53-2-4-2.23-4.22-.65-8.5-.89-12.75-1.35-3.19-.35-6.39-.67-9.53-1.28-.85-.17-1.55-1.33-2.21-2.12s0-3.59,1.33-4.18c1.91-.88,3.88-2.05,5.89-2.2,6.41-.49,12.86-.52,19.28-.87.73,0,1.49-1,2-1.64.16-.2-.21-1.08-.56-1.4a26.69,26.69,0,0,0-3.72-3c-5-3.11-10.09-6.12-15.13-9.18a35.18,35.18,0,0,1-4-2.68,14,14,0,0,1-2-2.48c-.79-1-1-3.62.09-4.49s2.82-2.2,4-2a35.21,35.21,0,0,1,11.88,4.72c3.67,2.15,7.17,4.67,11.44,5.64,1,.24,1.41.12,1.28-.81a11.1,11.1,0,0,0-.4-2.86c-2.39-5.37-5.36-10.53-6-16.5A3.57,3.57,0,0,1,424,501a3.08,3.08,0,0,1,2.84-.17,21.59,21.59,0,0,1,4.9,4.07c2.08,2.44,3.83,5.16,5.7,7.77,1.54,2.17,3,4.39,4.6,6.53a1.44,1.44,0,0,0,1.27.47,1.93,1.93,0,0,0,1.12-1.1,62.91,62.91,0,0,0,2.61-17.42,47.62,47.62,0,0,1,1-7.92c.31-1.81,3-3.4,5-3.17,1.27.14,3.53,1.79,3.69,2.74a47.07,47.07,0,0,1,1,6.32c.17,5.89.08,11.8.21,17.7a6.88,6.88,0,0,0,1.11,2.77c.34.65,3-.77,4-2.2,2.56-3.44,5-7,7.73-10.27,1.33-1.57,3.32-2.61,5.09-3.79a1.66,1.66,0,0,1,1.55,0,4.36,4.36,0,0,1,1.72,5.46c-.85,2.53-1.9,5-2.87,7.49-1.29,3.33-1.3,4.27,0,4.22a7.94,7.94,0,0,0,3-.32c3.87-1.85,7.63-3.93,11.51-5.74a12.24,12.24,0,0,1,4.6-1.12,3.67,3.67,0,0,1,2.64,1.37,4.3,4.3,0,0,1,.6,3,10.65,10.65,0,0,1-4.37,6.54c-2.94,2.3-6.23,4.16-9.31,6.3-2.16,1.5-4.23,3.13-6.27,4.79a1.56,1.56,0,0,0-.38,1.43,1.81,1.81,0,0,0,1.28.89C483.72,538,488,538.28,490,538.45Z" fill="inherit"/><path d="M341.47,486c-.09,1.83-2.72,3.75-4.55,3.44-8-1.37-19.25-8.12-23.69-14.41a3.62,3.62,0,0,1-.39-2.95,3.17,3.17,0,0,1,2.34-1.73c2.6,0,5.46-.11,7.74.9,5.27,2.34,10.31,5.24,15.35,8.06C340.7,480.64,341.71,483.11,341.47,486Z" fill="inherit"/><path d="M89.84,169.81c-.33,1.24-.54,2.28-.88,3.28-.58,1.67-4.23,2.45-5.48,1.21-.38-.37-.94-.59-1.24-1a47.28,47.28,0,0,1-8.59-20.38,8,8,0,0,1,1.06-6.1c.71-1,1.5-1.69,2.66-1.18,1.41.63,3.1,1.24,4,2.39a46.28,46.28,0,0,1,8.49,20.41A7.12,7.12,0,0,1,89.84,169.81Z" fill="inherit"/><path d="M527.06,602.65c-.1,2.88-3.46,5.62-5.61,5.15a9.34,9.34,0,0,1-1.54-.26A37.64,37.64,0,0,1,505,596a6.16,6.16,0,0,1-1.28-2.84,5.6,5.6,0,0,1,.56-3c.68-1.39,2.89-2.53,3.84-2.26a15.61,15.61,0,0,1,3,.94A55.83,55.83,0,0,1,525.27,599C526.29,600,526.62,601.71,527.06,602.65Z" fill="inherit"/><path d="M475.67,309.37c-.06,5.3-.14,9-2.09,12.37-.81,1.39-1.88,2.57-3.62,2.61a4.2,4.2,0,0,1-3.92-2.17c-3.24-6-2.62-16.82,1.24-22.77.27-.43.8-.68,1.17-1.06a2.85,2.85,0,0,1,4.13.61,26.11,26.11,0,0,1,2.66,5.67A20.13,20.13,0,0,1,475.67,309.37Z" fill="inherit"/><path d="M137.2,275.29a18.13,18.13,0,0,1-2.5,3.41c-1.26,1.12-2.94.94-4.48.29a3.53,3.53,0,0,1-1.38-.78c-5.7-6.77-8.13-14.79-8.72-23.44-.05-.76,1-1.8,1.73-2.34a2.18,2.18,0,0,1,2.92.58,52.48,52.48,0,0,1,12.3,20.25A11,11,0,0,1,137.2,275.29Z" fill="inherit"/><path d="M474,413.3c-.14,1.07-.62,4.76-1.12,8.45-.12.93-2.36,2.62-3.62,2.79-2,.26-4.73-1.26-5-3-1.44-8-1.58-15.89.59-23.76a2.93,2.93,0,0,1,.64-1.45,22,22,0,0,1,3.7-2.76c.81-.44,3.25,1.63,3.51,2.8a45.43,45.43,0,0,1,1.28,6.26C474.14,405.29,474,408,474,413.3Z" fill="inherit"/><path d="M473.14,485.71c-.28,1.49-.47,3.08-.89,4.61-.63,2.27-2.47,3.38-4.51,4.14-1.37.51-4.62-1.25-5.39-2.76-3-5.91-1.6-15.31,3.37-20.87a2.79,2.79,0,0,1,2.73,0,30.82,30.82,0,0,1,3.31,5.35,8.7,8.7,0,0,1,.88,3.06C472.89,481.34,473,483.48,473.14,485.71Z" fill="inherit"/><path d="M464,346.79a50.31,50.31,0,0,1,.58-5.21,9.75,9.75,0,0,1,3.1-5.41c1-.94,3.65-1,4.24.05,2.9,5.27,4.24,10.85,3,16.84a22.51,22.51,0,0,1-1.74,4.43c-.55,1.25-2.72,2.54-3.88,2.28a5.49,5.49,0,0,1-3.83-2.51C463.85,354.33,464.15,351.1,464,346.79Z" fill="inherit"/><path d="M271.66,444.31a30,30,0,0,1,6.09,1.1,20.25,20.25,0,0,1,9,6.44c1.57,1.88,1.82,4.13.38,5.71a4.34,4.34,0,0,1-4.31,1.51,25.56,25.56,0,0,1-13.48-8.16,17.24,17.24,0,0,1-1.6-2.74C267.21,447.21,268.76,444.51,271.66,444.31Z" fill="inherit"/><path d="M99.32,211.86a12.22,12.22,0,0,1,.42-2.58c.48-.9.93-2.12,1.73-2.48a3.5,3.5,0,0,1,2.93.42A17.5,17.5,0,0,1,112,220.4a4.31,4.31,0,0,1-6.42,4,10.32,10.32,0,0,1-4.17-4.47C100.18,217.11,99.81,213.94,99.32,211.86Z" fill="inherit"/><path d="M372.6,503a10.41,10.41,0,0,1,1.55-.19A21.27,21.27,0,0,1,387.21,508a4.76,4.76,0,0,1,0,7.06,4.35,4.35,0,0,1-4.35,1.29,19.08,19.08,0,0,1-12.15-9.62C370.09,505.56,371.32,503,372.6,503Z" fill="inherit"/><path d="M160.66,325.49a22.65,22.65,0,0,1-1.62,3,3.93,3.93,0,0,1-5.64.64,15.08,15.08,0,0,1-2.31-2.2,18.17,18.17,0,0,1-3.28-13.63c.1-.79,1.12-1.55,1.87-2.13.25-.19,1.08.12,1.48.42a31.9,31.9,0,0,1,8.49,9.51C160.4,322.44,160.38,324.18,160.66,325.49Z" fill="inherit"/><path d="M473.63,448.93c-.49,2.07-.49,3.87-1.34,5.07a5.68,5.68,0,0,1-3.79,2.37c-1.32,0-3.4-1-3.89-2.11-2.34-5.27-1.47-10.39,2-15a3.12,3.12,0,0,1,5.08.85C472.54,443.16,473.07,446.28,473.63,448.93Z" fill="inherit"/><path d="M262.88,440.14a8.52,8.52,0,0,1-1.27,2.66,4.8,4.8,0,0,1-2.77,1.3c-4.56.32-8-1.91-10-6.23-.81-1.75,1-4.6,2.91-4.69a11.74,11.74,0,0,1,9.8,4.13A11,11,0,0,1,262.88,440.14Z" fill="inherit"/><path d="M468.81,384.77c-1.14-.71-3-1.21-3.56-2.35-1.86-3.63-1.21-7.14,1.58-10.21a3,3,0,0,1,4.13.41c2.51,3.3,2.86,7,.72,10.24C471.17,383.65,470,384,468.81,384.77Z" fill="inherit"/><path d="M351.41,490.56c2.84-.11,5.11,1.29,7.34,2.73a4.77,4.77,0,0,1,1.3,5.7,4.07,4.07,0,0,1-5.49,1.37c-2.34-1.32-4.57-2.8-5.66-5.36a3.83,3.83,0,0,1-.06-3C349.27,491.29,350.53,491,351.41,490.56Z" fill="inherit"/><path d="M90.2,189.79c.28-1.3.48-2.3.73-3.29.33-1.35,1.14-1.68,2.41-1.12,4.22,1.84,6.5,5.11,6.5,9.63a4.81,4.81,0,0,1-2.22,3.71c-1.11.49-3.16,0-4.26-.83C90.61,195.87,90.41,192.63,90.2,189.79Z" fill="inherit"/><path d="M298.33,460.32c3.74.19,7.17.92,9,4.76a3.23,3.23,0,0,1-2.41,4.6,11,11,0,0,1-4.46-.47c-2.52-.91-4.1-3-5.5-5.22-.73-1.16.34-3.23,1.81-3.4C297.31,460.53,297.82,460.41,298.33,460.32Z" fill="inherit"/><path d="M536,608.91a29.15,29.15,0,0,1,3.67.78,6.46,6.46,0,0,1,4,4.45c.35,1-.95,3.51-2.06,3.87a5.84,5.84,0,0,1-5.89-1,17,17,0,0,1-3-3.53C531.51,611.68,532.94,609.07,536,608.91Z" fill="inherit"/><path d="M139,288.42c.47,0,1-.17,1.43,0a7.66,7.66,0,0,1,4.29,7.87,3.3,3.3,0,0,1-4.78,2.37c-3-1.72-4.45-5.26-3.19-8.16C137.12,289.67,138.2,289.13,139,288.42Z" fill="inherit"/><path d="M120.94,240.29a23.88,23.88,0,0,1-3,3.43,3,3,0,0,1-4.07-.92,8.33,8.33,0,0,1-1.08-8.69,1.64,1.64,0,0,1,2.52-1C118.48,234.43,119.48,237.33,120.94,240.29Z" fill="inherit"/></g></svg>